<svg width="32" height="32" viewBox="0 0 32 32" fill="none" xmlns="http://www.w3.org/2000/svg">
<path fill-rule="evenodd" clip-rule="evenodd" d="M31 16C31 24.2843 24.2843 31 16 31C7.71573 31 1 24.2843 1 16C1 7.71573 7.71573 1 16 1C18.1333 1 20.1626 1.44534 22 2.24813V1.16303C20.1471 0.413014 18.1218 0 16 0C7.16344 0 0 7.16344 0 16C0 24.8366 7.16344 32 16 32C24.8366 32 32 24.8366 32 16C32 13.8782 31.587 11.8529 30.837 10H29.7519C30.5547 11.8374 31 13.8667 31 16Z" fill="white"/>
<path d="M14.9037 17.6183C14.9037 17.065 15.0345 16.6113 15.2959 16.2573C15.5573 15.8921 15.9376 15.4938 16.4367 15.0622C16.7813 14.7635 17.0368 14.5145 17.2032 14.3154C17.3696 14.1051 17.4528 13.8838 17.4528 13.6515C17.4528 13.3306 17.3042 13.0761 17.0071 12.888C16.7219 12.6888 16.3476 12.5892 15.8841 12.5892C15.4088 12.5892 14.975 12.6943 14.5829 12.9046C14.2026 13.1148 13.8936 13.408 13.656 13.7842L11 12.4564C11.4872 11.6819 12.1765 11.0788 13.0677 10.6473C13.959 10.2158 15.0345 10 16.2941 10C17.7083 10 18.8431 10.2766 19.6988 10.8299C20.5663 11.3721 21 12.1355 21 13.1203C21 13.574 20.9168 13.9779 20.7504 14.332C20.5841 14.675 20.3821 14.9682 20.1444 15.2116C19.9186 15.444 19.6215 15.7095 19.2531 16.0083C18.8491 16.3292 18.552 16.6058 18.3619 16.8382C18.1717 17.0595 18.0766 17.3195 18.0766 17.6183H14.9037ZM16.4902 22C15.9079 22 15.4266 21.834 15.0463 21.5021C14.6661 21.1591 14.4759 20.7441 14.4759 20.2573C14.4759 19.7593 14.6601 19.3499 15.0285 19.029C15.4088 18.7082 15.896 18.5477 16.4902 18.5477C17.0844 18.5477 17.5716 18.7082 17.9519 19.029C18.3321 19.3499 18.5223 19.7593 18.5223 20.2573C18.5223 20.7441 18.3321 21.1591 17.9519 21.5021C17.5716 21.834 17.0844 22 16.4902 22Z" fill="white"/>
<circle cx="28" cy="4" r="4" transform="rotate(-180 28 4)" fill="#EC3C3C"/>
</svg>
