<svg width="131" height="56" viewBox="0 0 131 56" fill="none" xmlns="http://www.w3.org/2000/svg">
<g clip-path="url(#clip0_701_7259)">
<path d="M26.8453 15.5788C27.437 15.4957 28.0286 15.6121 28.6033 15.7368C29.8457 16.0361 30.9698 16.7844 31.705 17.8153C32.4403 18.813 32.7869 20.0685 32.7023 21.2907C32.6263 22.5627 32.0516 23.8015 31.1303 24.6995C30.2429 25.5891 29.0174 26.1461 27.7581 26.2459C26.1608 26.3956 24.5042 25.7969 23.3971 24.6579C22.3913 23.6685 21.8589 22.2634 21.8335 20.8749C21.8842 19.6943 22.2814 18.5137 23.0421 17.5825C23.9549 16.4352 25.3747 15.7285 26.8453 15.5788Z" fill="#47A2DA"/>
<path d="M38.7706 16.8432C39.7088 16.6437 40.723 16.7351 41.5851 17.1591C42.7683 17.7162 43.6557 18.8552 43.8924 20.1273C44.1206 21.258 43.8501 22.4636 43.1571 23.3948C42.5232 24.2677 41.5259 24.8747 40.4441 25.0493C39.2439 25.2654 37.9508 24.9246 37.0127 24.1597C36.1929 23.4945 35.6351 22.5218 35.5083 21.4742C35.3393 20.2437 35.7534 18.9467 36.6324 18.0487C37.1986 17.4501 37.9593 17.0261 38.7706 16.8432Z" fill="#F16164"/>
<path d="M58.1165 19.1223C58.9448 19.1223 59.7731 19.1223 60.6013 19.1223C62.7143 24.8009 64.8356 30.4878 66.957 36.1663C65.816 36.158 64.675 36.1663 63.5341 36.1663C63.1284 35.0772 62.7312 33.988 62.3086 32.9072C60.3393 32.9072 58.3701 32.9072 56.4009 32.9072C55.9867 33.988 55.5895 35.0772 55.1838 36.1663C54.0428 36.1747 52.8934 36.1663 51.7524 36.1747C53.8823 30.4878 55.9952 24.8009 58.1165 19.1223ZM59.266 25.175C58.6321 26.9043 57.9729 28.6254 57.339 30.3547C58.6828 30.3464 60.0351 30.3464 61.3789 30.3547C60.7197 28.5506 60.0435 26.763 59.3758 24.9671C59.3336 25.0337 59.2913 25.1002 59.266 25.175ZM81.029 19.1722C81.9334 18.8729 83.0152 19.2802 83.4716 20.1117C83.9026 20.8516 83.8012 21.841 83.218 22.4729C82.5081 23.3043 81.1051 23.3875 80.2937 22.6475C79.5753 22.0489 79.3894 20.9597 79.8289 20.1532C80.0824 19.6876 80.5219 19.3301 81.029 19.1722ZM87.5875 21.3255C88.6609 21.3255 89.7342 21.3255 90.7992 21.3255C90.7907 22.3898 90.7992 23.4623 90.7992 24.5265C92.0923 24.5431 93.3769 24.5265 94.67 24.5348C94.67 25.3829 94.6616 26.2309 94.67 27.0789C93.3769 27.0873 92.0838 27.0706 90.7992 27.0873C90.7992 28.7002 90.7992 30.3215 90.7992 31.9427C90.7823 32.5247 91.1119 33.0984 91.6528 33.3561C92.4641 33.7552 93.4192 33.6471 94.2728 33.431C94.408 34.2624 94.5348 35.1021 94.6616 35.9335C93.267 36.4656 91.7035 36.5488 90.2667 36.1414C89.4384 35.9003 88.6693 35.3931 88.2129 34.6532C87.7735 33.9381 87.6129 33.0901 87.5875 32.267C87.5875 30.5376 87.5875 28.8166 87.5875 27.0873C86.7339 27.0789 85.8887 27.0873 85.0351 27.0873C85.0351 26.2392 85.0351 25.3912 85.0351 24.5348C85.8887 24.5348 86.7339 24.5348 87.5875 24.5348C87.5875 23.4623 87.5875 22.3898 87.5875 21.3255ZM100.89 24.3353C102.175 24.1025 103.544 24.2604 104.736 24.8009C105.978 25.3496 107.026 26.314 107.669 27.4947C108.269 28.5921 108.497 29.8808 108.336 31.1113C108.176 32.3751 107.576 33.5806 106.671 34.4952C105.683 35.5095 104.339 36.1747 102.927 36.3576C101.592 36.5405 100.206 36.2911 99.0226 35.6675C97.7295 34.9857 96.6815 33.8467 96.1491 32.4915C95.6927 31.3441 95.6251 30.0471 95.9293 28.8499C96.4956 26.5552 98.5409 24.7343 100.89 24.3353ZM101.583 27.2619C100.612 27.3949 99.7157 27.9935 99.2255 28.8332C98.7268 29.6647 98.6677 30.7372 99.0733 31.6185C99.5889 32.7742 100.848 33.5474 102.133 33.5141C103.147 33.4975 104.144 32.9903 104.736 32.1755C105.311 31.4023 105.497 30.363 105.192 29.4485C104.736 27.9769 103.113 27.0041 101.583 27.2619ZM65.9343 24.5348C67.0077 24.5348 68.0811 24.5348 69.146 24.5348C70.2109 27.345 71.2335 30.1718 72.3069 32.982C73.3803 30.1718 74.4114 27.345 75.4763 24.5348C76.5496 24.5348 77.6146 24.5348 78.6879 24.5348C77.2511 28.4092 75.789 32.2753 74.3607 36.158C72.9999 36.183 71.6477 36.158 70.287 36.1663C68.8248 32.2919 67.388 28.4092 65.9343 24.5348ZM80.0571 24.5348C81.1304 24.5348 82.1954 24.5348 83.2687 24.5348C83.2687 28.4092 83.2687 32.2919 83.2687 36.1663C82.1954 36.1663 81.1304 36.1663 80.0571 36.1663C80.0571 32.2836 80.0571 28.4092 80.0571 24.5348Z" fill="black"/>
<path d="M38.8381 26.7127C40.0044 26.5713 41.213 26.7127 42.3033 27.1699C43.8161 27.7935 45.067 28.9907 45.7347 30.4623C46.4108 31.9256 46.5122 33.6384 46.0051 35.1682C45.2783 37.4795 43.1231 39.2754 40.689 39.5913C39.024 39.8407 37.2745 39.4416 35.9054 38.4772C34.6883 37.6375 33.7755 36.3737 33.3699 34.9603C32.9642 33.5469 33.0487 31.9922 33.6319 30.6286C34.4939 28.5418 36.5561 26.9953 38.8381 26.7127Z" fill="#97CA3D"/>
<path d="M26.5917 30.2133C27.9271 29.889 29.423 30.5708 30.0231 31.7847C30.4372 32.5662 30.4626 33.5307 30.116 34.3454C29.7442 35.2184 28.9328 35.9002 27.9947 36.1081C26.7269 36.424 25.307 35.842 24.6478 34.7279C23.9294 33.5889 24.1069 31.9925 25.0788 31.053C25.4845 30.6373 26.0254 30.3463 26.5917 30.2133Z" fill="#AA75B2"/>
</g>
<defs>
<clipPath id="clip0_701_7259">
<rect width="86.5536" height="24.1111" fill="white" transform="translate(21.8335 15.5547)"/>
</clipPath>
</defs>
</svg>
