<svg width="44" height="44" viewBox="0 0 44 44" fill="none" xmlns="http://www.w3.org/2000/svg">
<g clip-path="url(#clip0_11190_131)">
<rect width="44" height="44" rx="2" fill="#F2720C"/>
<path fill-rule="evenodd" clip-rule="evenodd" d="M21.1104 25.8146C19.6615 25.7277 18.2713 25.2113 17.1171 24.3313C16.9739 24.2167 16.8249 24.1021 16.6931 23.9721C16.4545 23.7672 16.305 23.4775 16.2761 23.1644C16.2472 22.8512 16.3414 22.5391 16.5385 22.294C16.6954 22.0503 16.941 21.8772 17.2233 21.8113C17.5055 21.7454 17.8024 21.792 18.0509 21.9411C18.1666 22.0007 18.2777 22.0686 18.3833 22.1445C19.4405 22.8981 20.7036 23.3088 22.0019 23.3211C23.3001 23.3334 24.5708 22.9467 25.6421 22.2132C25.85 22.0386 26.0919 21.909 26.3525 21.8328C26.5929 21.762 26.8505 21.7758 27.0819 21.8719C27.3134 21.968 27.5049 22.1407 27.6244 22.361C27.7853 22.5773 27.8653 22.843 27.8506 23.112C27.836 23.3811 27.7276 23.6365 27.5442 23.834C26.9544 24.4565 26.2345 24.9413 25.4359 25.2537C24.6629 25.5419 23.8562 25.7299 23.0354 25.8129C23.1614 25.9521 23.2187 26.0208 23.2932 26.0993C24.4046 27.2589 25.5218 28.4139 26.6276 29.5781C26.803 29.7499 26.9209 29.972 26.965 30.2136C27.0091 30.4552 26.9773 30.7045 26.8739 30.9273C26.772 31.1686 26.6003 31.374 26.3808 31.5169C26.1613 31.6599 25.904 31.7338 25.6421 31.7294C25.3384 31.6969 25.0592 31.548 24.8629 31.314C24.0207 30.4375 23.1671 29.5764 22.3478 28.6832C22.1072 28.4231 21.9926 28.4729 21.7864 28.6986C20.9385 29.6008 20.0848 30.4921 19.2255 31.3724C19.0693 31.5558 18.8548 31.6798 18.6181 31.7238C18.3813 31.7679 18.1366 31.7291 17.9249 31.6142C17.6929 31.4978 17.4987 31.318 17.3648 31.0956C17.2309 30.8732 17.1629 30.6173 17.1687 30.3578C17.195 30.0363 17.34 29.7361 17.5755 29.5156C18.6755 28.3755 19.7716 27.2331 20.864 26.0885C20.9385 26.0134 21.0072 25.9326 21.1104 25.8146ZM22.0213 21.8403C21.0076 21.8737 20.0071 21.6028 19.1487 21.0625C18.2904 20.5221 17.6136 19.7371 17.2054 18.8086C16.7973 17.8801 16.6765 16.8507 16.8587 15.8529C17.041 14.8552 17.5178 13.9349 18.2278 13.2106C18.9378 12.4863 19.8485 11.9913 20.8424 11.7893C21.8364 11.5872 22.868 11.6875 23.8045 12.0771C24.7409 12.4667 25.5392 13.1279 26.0965 13.9753C26.6537 14.8228 26.9445 15.8177 26.9312 16.8318C26.9376 18.1451 26.4256 19.4079 25.5062 20.3457C24.5868 21.2836 23.3345 21.8207 22.0213 21.8403ZM24.4447 16.7614C24.4247 16.2933 24.2674 15.8414 23.9924 15.462C23.7175 15.0826 23.337 14.7926 22.8984 14.6279C22.4597 14.4632 21.9824 14.4311 21.5257 14.5358C21.069 14.6404 20.6532 14.8771 20.33 15.2163C20.0069 15.5556 19.7906 15.9824 19.7082 16.4436C19.6259 16.9049 19.6811 17.3801 19.8668 17.8103C20.0526 18.2404 20.3608 18.6064 20.7531 18.8626C21.1453 19.1188 21.6043 19.254 22.0728 19.2513C22.3923 19.2444 22.7074 19.1745 22.9998 19.0455C23.2922 18.9165 23.5561 18.7309 23.7765 18.4996C23.997 18.2682 24.1696 17.9955 24.2842 17.6972C24.3989 17.3989 24.4534 17.0808 24.4447 16.7614Z" fill="#E5E5E5"/>
</g>
<defs>
<clipPath id="clip0_11190_131">
<rect width="44" height="44" fill="white"/>
</clipPath>
</defs>
</svg>
