<svg width="44" height="44" viewBox="0 0 44 44" fill="none" xmlns="http://www.w3.org/2000/svg">
<g clip-path="url(#clip0_11190_134)">
<rect width="44" height="44" rx="2" fill="url(#paint0_linear_11190_134)"/>
<path d="M15.5593 13.333H28.4435C29.6675 13.333 30.6682 14.334 30.6682 15.5581V28.4423C30.6682 29.666 29.6675 30.6663 28.4435 30.6663H15.5593C14.3352 30.6663 13.3335 29.666 13.3335 28.4423V15.5581C13.3335 14.334 14.3352 13.333 15.5593 13.333ZM25.9616 15.2581C25.5318 15.2581 25.1813 15.6101 25.1813 16.0397V17.9068C25.1813 18.3366 25.5318 18.6877 25.9616 18.6877H27.9206C28.3497 18.6877 28.701 18.3366 28.701 17.9068V16.0397C28.701 15.6101 28.3497 15.2581 27.9206 15.2581H25.9616ZM28.7085 20.6631H27.1832C27.3279 21.1354 27.4063 21.6336 27.4063 22.1515C27.4063 25.0338 24.9929 27.3715 22.0171 27.3715C19.0421 27.3715 16.6287 25.0338 16.6287 22.1515C16.6287 21.6336 16.7079 21.1354 16.8518 20.6631H15.2605V27.9859C15.2605 28.3652 15.5702 28.6737 15.9491 28.6737H28.0202C28.3994 28.6737 28.7085 28.3652 28.7085 27.9859V20.6631ZM22.0172 18.5892C20.0954 18.5892 18.5364 20.099 18.5364 21.963C18.5364 23.8252 20.0954 25.3361 22.0172 25.3361C23.9401 25.3361 25.4991 23.8252 25.4991 21.963C25.4991 20.0989 23.9401 18.5892 22.0172 18.5892Z" fill="white"/>
</g>
<defs>
<linearGradient id="paint0_linear_11190_134" x1="4.02778" y1="39.9725" x2="39.9722" y2="4.02751" gradientUnits="userSpaceOnUse">
<stop stop-color="#FFC107"/>
<stop offset="0.507" stop-color="#F44336"/>
<stop offset="0.99" stop-color="#9C27B0"/>
</linearGradient>
<clipPath id="clip0_11190_134">
<rect width="44" height="44" fill="white"/>
</clipPath>
</defs>
</svg>
