<svg width="131" height="56" viewBox="0 0 131 56" fill="none" xmlns="http://www.w3.org/2000/svg">
<g clip-path="url(#clip0_701_7238)">
<path fill-rule="evenodd" clip-rule="evenodd" d="M37.2492 38.9376L37.2881 38.9533C37.302 38.9581 37.3162 38.962 37.3306 38.965C37.4856 39.0136 37.647 39.0389 37.8094 39.04H46.2502L40.713 33.4883C39.6891 34.5057 39.0125 35.1752 38.5139 35.6749C38.0712 36.1164 37.7687 36.4195 37.4883 36.7039L36.8989 37.292C36.7197 37.4876 36.6205 37.7434 36.6209 38.0087C36.6199 38.2088 36.6793 38.4045 36.7914 38.5702C36.9035 38.736 37.0631 38.8641 37.2492 38.9376Z" fill="#FF4F12"/>
<path fill-rule="evenodd" clip-rule="evenodd" d="M36.6187 38.014C36.6183 37.7487 36.7176 37.493 36.8968 37.2974L37.4861 36.7093C37.7665 36.4248 38.0679 36.1218 38.5118 35.6802C39.0103 35.1835 39.6869 34.511 40.7108 33.4937L41.7086 32.5048L41.7283 32.485C43.3887 30.8318 45.7483 28.4858 49.2063 25.0381L41.6062 17.4336L37.3011 21.7416C36.0148 23.0278 36.1888 23.8695 36.1888 25.5965V37.4166C36.1886 37.748 36.2899 38.0715 36.4791 38.3435C36.6683 38.6156 36.9363 38.8232 37.247 38.9383C37.0617 38.865 36.9026 38.7377 36.7906 38.5729C36.6785 38.408 36.6186 38.2133 36.6187 38.014Z" fill="#7700FF"/>
<path fill-rule="evenodd" clip-rule="evenodd" d="M84.6791 31.2539H83.4132L81.9 32.7838V31.2539H80.8296V35.4689H81.9V33.7267L83.4382 35.4689H84.7303L82.7413 33.2084L84.6791 31.2539Z" fill="black"/>
<path fill-rule="evenodd" clip-rule="evenodd" d="M50.6978 32.3933H49.1509V30.522H50.6978C51.4797 30.522 51.8364 30.896 51.8364 31.4568C51.8364 32.0175 51.4791 32.3916 50.6978 32.3916V32.3933ZM50.7316 29.5215H48.0293V35.4693H49.1509V33.3962H50.7316C52.0743 33.3962 52.958 32.708 52.958 31.4585C52.958 30.2091 52.0749 29.5215 50.7316 29.5215Z" fill="black"/>
<path fill-rule="evenodd" clip-rule="evenodd" d="M55.4897 34.5848C54.8608 34.5848 54.2744 34.1346 54.2744 33.3632C54.2744 32.5919 54.8608 32.1417 55.4897 32.1417C56.1186 32.1417 56.705 32.5919 56.705 33.3632C56.705 34.1346 56.1186 34.5848 55.4897 34.5848ZM55.4897 31.1348C54.3338 31.1348 53.1865 31.8828 53.1865 33.3609C53.1865 34.839 54.3355 35.5877 55.4897 35.5877C56.6439 35.5877 57.7929 34.8402 57.7929 33.3615C57.7929 31.8828 56.6468 31.1348 55.4897 31.1348Z" fill="black"/>
<path fill-rule="evenodd" clip-rule="evenodd" d="M60.5281 34.5846C59.8824 34.5846 59.4065 34.1193 59.4065 33.3631C59.4065 32.6069 59.8993 32.1415 60.5281 32.1415C60.9104 32.1415 61.242 32.3201 61.5055 32.7191L62.4235 32.1921C62.1175 31.5377 61.4549 31.1387 60.5369 31.1387C59.3384 31.1387 58.3186 32.0223 58.3186 33.3648C58.3186 34.7074 59.2872 35.591 60.5369 35.591C61.4374 35.591 62.0413 35.1838 62.466 34.4607L61.5823 33.9762C61.3269 34.3299 61.0552 34.5846 60.5281 34.5846Z" fill="black"/>
<path fill-rule="evenodd" clip-rule="evenodd" d="M71.9297 33.6418C71.8785 34.2875 71.7511 34.4317 71.53 34.4317C71.42 34.4339 71.3104 34.4192 71.2048 34.3881L71.2101 35.4788C71.3341 35.5093 71.4617 35.523 71.5894 35.5195C72.4987 35.5195 72.8384 34.9331 72.9239 33.6842L73.0258 32.2143H74.2323V35.4602H75.3034V31.2539H72.1083L71.9297 33.6418Z" fill="black"/>
<path fill-rule="evenodd" clip-rule="evenodd" d="M67.7195 32.8007C67.8725 32.3249 68.2972 31.9509 68.858 31.9509C69.4531 31.9509 69.8522 32.2737 69.954 32.8007H67.7195ZM68.8923 31.1353C67.6706 31.1353 66.6741 32.0277 66.6741 33.3615C66.6741 34.6953 67.6683 35.5877 68.8411 35.5877C69.7673 35.5877 70.3537 35.2386 70.779 34.5168L69.929 34.0921C69.6655 34.4237 69.4275 34.6697 68.858 34.6697C68.2291 34.6697 67.7701 34.2626 67.702 33.6163H70.9483V33.2423C70.9488 32.0102 70.0989 31.1348 68.8917 31.1348L68.8923 31.1353Z" fill="black"/>
<path fill-rule="evenodd" clip-rule="evenodd" d="M76.9481 32.8007C77.1011 32.3249 77.5258 31.9509 78.0866 31.9509C78.6812 31.9509 79.0808 32.2737 79.1832 32.8007H76.9481ZM78.1204 31.1348C76.8987 31.1348 75.9021 32.0271 75.9021 33.3609C75.9021 34.6947 76.8987 35.5877 78.0697 35.5877C78.9959 35.5877 79.5823 35.2386 80.0076 34.5168L79.1576 34.0921C78.8941 34.4237 78.6562 34.6697 78.0866 34.6697C77.4577 34.6697 76.9987 34.2626 76.9307 33.6163H80.1769V33.2423C80.1775 32.0102 79.3275 31.1348 78.1204 31.1348Z" fill="black"/>
<path fill-rule="evenodd" clip-rule="evenodd" d="M62.7991 32.1887H64.0568V35.4689H65.1273V32.1887H66.3851V31.2539H62.7991V32.1887Z" fill="black"/>
<path fill-rule="evenodd" clip-rule="evenodd" d="M86.8557 34.5848C86.2268 34.5848 85.6404 34.1346 85.6404 33.3632C85.6404 32.5919 86.2268 32.1417 86.8557 32.1417C87.4846 32.1417 88.071 32.5919 88.071 33.3632C88.071 34.1346 87.4846 34.5848 86.8557 34.5848ZM86.8557 31.1348C85.6997 31.1348 84.5525 31.8828 84.5525 33.3609C84.5525 34.839 85.6997 35.5871 86.8557 35.5871C88.0116 35.5871 89.1589 34.839 89.1589 33.3609C89.1589 31.8828 88.0105 31.1348 86.8557 31.1348Z" fill="black"/>
<path fill-rule="evenodd" clip-rule="evenodd" d="M93.4197 31.2539L92.2573 34.2054L91.0949 31.2539H89.6958V35.4613H90.7133V32.7977L91.8419 35.4613H92.6733L93.8013 32.7977V35.4613H94.8194V31.2539H93.4197Z" fill="black"/>
</g>
<defs>
<clipPath id="clip0_701_7238">
<rect width="131" height="56" fill="white"/>
</clipPath>
</defs>
</svg>
