<svg width="44" height="44" viewBox="0 0 44 44" fill="none" xmlns="http://www.w3.org/2000/svg">
<g clip-path="url(#clip0_11190_127)">
<rect width="44" height="44" rx="2" fill="#45668E"/>
<path fill-rule="evenodd" clip-rule="evenodd" d="M29.9504 24.9276C30.6494 25.5836 31.3942 26.2006 32.0244 26.9231C32.3107 27.2349 32.5606 27.5784 32.7692 27.9469C32.8429 28.0471 32.8896 28.1645 32.9047 28.2879C32.9199 28.4114 32.9031 28.5366 32.8559 28.6517C32.8087 28.7667 32.7328 28.8677 32.6353 28.945C32.5379 29.0222 32.4222 29.0731 32.2994 29.0927H29.2114C28.8468 29.1206 28.4805 29.0665 28.1395 28.9345C27.7985 28.8025 27.4913 28.5958 27.2405 28.3296C26.8109 27.9131 26.4155 27.4702 26.003 27.0405C25.8395 26.8592 25.6527 26.7005 25.4473 26.5685C25.3692 26.5024 25.2767 26.4556 25.1773 26.4316C25.0779 26.4077 24.9742 26.4073 24.8746 26.4305C24.775 26.4537 24.6821 26.4999 24.6035 26.5653C24.5249 26.6307 24.4627 26.7136 24.4218 26.8074C24.2034 27.2326 24.0913 27.7043 24.0952 28.1823C24.0609 28.8773 23.8432 29.0601 23.1098 29.0921C21.5797 29.2082 20.0476 28.8936 18.6869 28.1841C17.5202 27.5163 16.507 26.6103 15.7135 25.5251C14.1676 23.4542 12.8536 21.2201 11.7947 18.8627C11.5484 18.3368 11.7259 18.0555 12.3332 18.0452C13.3416 18.0274 14.3499 18.0274 15.364 18.0452C15.5485 18.0455 15.7282 18.1034 15.8782 18.2109C16.0281 18.3183 16.1408 18.4699 16.2004 18.6444C16.7387 19.9301 17.4272 21.1476 18.2515 22.2716C18.4598 22.5856 18.7215 22.8605 19.0249 23.084C19.085 23.1436 19.1598 23.1862 19.2417 23.2075C19.3236 23.2288 19.4096 23.2281 19.4911 23.2053C19.5726 23.1825 19.6466 23.1386 19.7056 23.0779C19.7646 23.0173 19.8065 22.9421 19.827 22.86C19.9285 22.6181 19.9885 22.3609 20.0046 22.0991C20.0992 21.2117 20.0819 20.3159 19.9531 19.4328C19.9282 19.1758 19.8165 18.9349 19.6363 18.75C19.4561 18.5651 19.2182 18.4472 18.9619 18.4158C18.6697 18.3625 18.7098 18.2571 18.853 18.0961C18.9635 17.95 19.1077 17.8328 19.2733 17.7544C19.439 17.6761 19.621 17.6391 19.8041 17.6464H23.2989C23.405 17.6537 23.5086 17.6819 23.6037 17.7295C23.6987 17.7772 23.7834 17.8433 23.8527 17.9239C23.922 18.0046 23.9746 18.0982 24.0074 18.1994C24.0402 18.3006 24.0525 18.4073 24.0437 18.5132V22.2171C24.0358 22.4041 24.0771 22.59 24.1636 22.756C24.25 22.922 24.3786 23.0623 24.5364 23.163C24.672 23.1835 24.8107 23.1634 24.935 23.1055C25.0594 23.0475 25.1638 22.9541 25.2353 22.837C26.0342 21.9804 26.6988 21.0076 27.2062 19.9518C27.4411 19.4964 27.6416 19.0225 27.8421 18.5499C27.8941 18.3858 28.0012 18.2448 28.1453 18.1508C28.2894 18.0568 28.4617 18.0157 28.6328 18.0343H31.99C32.0897 18.0318 32.1893 18.0377 32.288 18.0521C32.8552 18.1437 33.0098 18.3769 32.8379 18.9045C32.5162 19.711 32.0632 20.4586 31.4973 21.1171C30.9416 21.8574 30.3401 22.5718 29.7843 23.3171C29.2744 23.9972 29.3145 24.3398 29.9504 24.9305V24.9276Z" fill="white"/>
</g>
<defs>
<clipPath id="clip0_11190_127">
<rect width="44" height="44" fill="white"/>
</clipPath>
</defs>
</svg>
