<svg width="131" height="56" viewBox="0 0 131 56" fill="none" xmlns="http://www.w3.org/2000/svg">
<g clip-path="url(#clip0_701_7253)">
<g clip-path="url(#clip1_701_7253)">
<path d="M79.319 15.7687V16.8139H88.3403C88.9379 16.8139 89.8409 16.8139 90.4415 17.4191C91.042 18.0243 91.042 18.9156 91.042 19.518V28.5102C91.042 29.1068 91.042 30.011 90.4415 30.6076C89.8409 31.2042 88.9379 31.2085 88.3403 31.2085H83.9765C83.2262 31.2085 82.2483 31.2085 81.8724 30.3819C81.4965 29.5553 82.0164 28.8092 82.4744 28.2097L88.3331 20.4208H79.319L75.7186 25.2166C75.1194 26.0202 74.5952 26.7132 74.5952 27.6117C74.5952 28.5102 75.0762 29.1614 75.7186 30.0124L76.6244 31.21C77.5188 32.4075 78.4232 33.6093 79.6229 34.2102C80.8225 34.8111 82.2526 34.8068 84.207 34.8068H88.1127C90.3623 34.8068 93.7467 34.8068 95.9962 32.5613C98.2458 30.3158 98.2487 27.0136 98.2487 25.8118V22.2178C98.2487 21.0188 98.2487 17.721 95.9962 15.4755C93.7438 13.23 90.3637 13.2285 88.1127 13.2285H81.8767C81.2791 13.2285 80.5244 13.2285 79.9267 13.8251C79.3291 14.4217 79.3176 15.1707 79.3176 15.7731" fill="#D35243"/>
<path d="M67.7472 20.4199H76.7569L65.9441 34.8088H56.9358L67.7472 20.4199Z" fill="#D35243"/>
<path d="M31.9702 22.9602C31.9702 22.3636 31.9702 21.6131 32.5693 21.0122C33.1684 20.4113 33.9202 20.4199 34.5236 20.4199H49.6152C51.5681 20.4199 52.9982 20.4199 54.195 21.0122C55.3918 21.6045 56.3005 22.815 57.2064 24.0125L58.1022 25.2157C58.7402 26.0639 59.2299 26.7123 59.2299 27.6108C59.2299 28.5093 58.7071 29.2065 58.1022 30.0116L54.5018 34.8088H45.4834L51.342 27.0113C51.7942 26.4147 52.3185 25.6657 51.9454 24.8362C51.5724 24.0067 50.5902 24.011 49.837 24.011H42.7874V41.9997H35.5865V24.011H31.9861V22.9602" fill="#D35243"/>
</g>
</g>
<defs>
<clipPath id="clip0_701_7253">
<rect width="131" height="56" fill="white"/>
</clipPath>
<clipPath id="clip1_701_7253">
<rect width="66.2798" height="28.7778" fill="white" transform="translate(31.9702 13.2227)"/>
</clipPath>
</defs>
</svg>
