<svg width="44" height="44" viewBox="0 0 44 44" fill="none" xmlns="http://www.w3.org/2000/svg">
<g clip-path="url(#clip0_11190_124)">
<path d="M0 2C0 0.895431 0.895431 0 2 0H42C43.1046 0 44 0.895431 44 2V42C44 43.1046 43.1006 44 41.9961 44C26.7 44 17.3 44 2.00393 44C0.89936 44 0 43.1046 0 42V2Z" fill="#3B5998"/>
<path fill-rule="evenodd" clip-rule="evenodd" d="M26.0847 19.0153H23.1342V17.0336C23.1166 16.9175 23.1248 16.7989 23.1583 16.6863C23.1918 16.5738 23.2497 16.47 23.328 16.3824C23.4063 16.2948 23.5029 16.2257 23.611 16.1798C23.7191 16.1339 23.8361 16.1124 23.9534 16.117H26.0331V12.8444L23.1685 12.833C19.9831 12.833 19.2555 15.2736 19.2555 16.8354V19.0171H17.4165V22.3887H19.2555V31.9283H23.1342V22.3869H25.7467L26.0847 19.0153Z" fill="#E5E5E5"/>
</g>
<defs>
<clipPath id="clip0_11190_124">
<rect width="44" height="44" fill="white"/>
</clipPath>
</defs>
</svg>
