<svg width="131" height="56" viewBox="0 0 131 56" fill="none" xmlns="http://www.w3.org/2000/svg">
<g clip-path="url(#clip0_701_7217)">
<path d="M64.5689 30.168H59.7349C59.1978 30.168 58.8909 30.5481 58.8909 31.0044V36.4789C58.8909 37.0111 59.2745 37.3152 59.7733 37.3152C60.2337 37.3152 60.6173 37.0111 60.6173 36.4789V31.8407H63.6865V36.4789C63.6865 37.0111 64.0702 37.3152 64.5689 37.3152C65.0293 37.3152 65.4513 37.0111 65.4513 36.4408V31.0044C65.4513 30.5481 65.1444 30.168 64.5689 30.168Z" fill="#FF6900"/>
<path d="M72.9713 30.168H72.8946C72.3958 30.168 72.0506 30.4341 71.7053 30.9283L68.9046 34.8821V31.0424C68.9046 30.5101 68.5593 30.206 68.0989 30.206C67.6002 30.206 67.2549 30.5101 67.2549 31.0424V36.3268C67.2549 36.8971 67.6385 37.2772 68.214 37.2772H68.2907C68.8279 37.2772 69.1732 37.0111 69.5184 36.5169L72.3191 32.5631V36.4408C72.3191 36.9731 72.6644 37.2772 73.1631 37.2772C73.6235 37.2772 74.0072 36.9731 74.0072 36.4408V31.1564C73.9688 30.5481 73.6235 30.168 72.9713 30.168Z" fill="#FF6900"/>
<path d="M82.6006 35.6054H82.1786V30.9672C82.1786 30.435 81.7949 30.1309 81.2962 30.1309C80.8358 30.1309 80.4521 30.435 80.4521 30.9672V35.6054H77.4596V30.9672C77.4596 30.435 77.076 30.1309 76.5772 30.1309C76.0785 30.1309 75.6948 30.435 75.6948 30.9672V36.4418C75.6948 36.898 76.0017 37.2781 76.5389 37.2781H81.7182V38.0385C81.7182 38.5707 82.1018 38.8749 82.5622 38.8749C83.061 38.8749 83.4062 38.5707 83.4062 38.0385V36.4798C83.4446 35.9095 83.1377 35.6054 82.6006 35.6054Z" fill="#FF6900"/>
<path d="M91.2708 35.6054H90.8487V30.9672C90.8487 30.435 90.4651 30.1309 89.9663 30.1309C89.506 30.1309 89.1223 30.435 89.1223 30.9672V35.6054H86.1298V30.9672C86.1298 30.435 85.7461 30.1309 85.2474 30.1309C84.7486 30.1309 84.365 30.435 84.365 30.9672V36.4418C84.365 36.898 84.6719 37.2781 85.209 37.2781H90.3884V38.0385C90.3884 38.5707 90.772 38.8749 91.2324 38.8749C91.7312 38.8749 92.0764 38.5707 92.0764 38.0385V36.4798C92.1148 35.9095 91.8079 35.6054 91.2708 35.6054Z" fill="#FF6900"/>
<path d="M99.7112 36.0607L97.3709 30.9663C97.1023 30.3961 96.7187 30.168 96.2199 30.168H96.1432C95.6061 30.168 95.2224 30.3961 94.9539 30.9663L92.6136 36.0607C92.3834 36.5549 92.5368 37.0111 92.9972 37.1632C93.4192 37.3152 93.8413 37.2392 94.0715 36.745L94.6086 35.6425C95.069 35.7945 95.6828 35.8706 96.2199 35.8706C96.7954 35.8706 97.3325 35.7945 97.7545 35.6425L98.2533 36.745C98.4835 37.2392 98.9055 37.3152 99.3275 37.1632C99.7495 37.0111 99.9414 36.5549 99.7112 36.0607ZM96.1816 34.3879C95.8363 34.3879 95.4526 34.3499 95.1457 34.2739L96.1432 32.0688L97.1407 34.2739C96.8721 34.3499 96.5268 34.3879 96.1816 34.3879Z" fill="#FF6900"/>
<path d="M66.6404 24.2383H66.2184V19.6762C66.2184 19.22 65.9115 18.8398 65.3744 18.8398H61.3844C60.924 18.8398 60.6171 19.144 60.6171 19.6762V20.7787C60.6171 21.5771 60.6171 22.1854 60.4636 22.8697C60.3101 23.516 60.1567 23.9342 59.8881 24.2383H59.6963C59.1592 24.2383 58.8906 24.5805 58.8906 25.0747V26.6714C58.8906 27.2037 59.2743 27.5078 59.7347 27.5078C60.2334 27.5078 60.5787 27.2037 60.5787 26.6714V25.9111H65.7964V26.6714C65.7964 27.2037 66.18 27.5078 66.6404 27.5078C67.1392 27.5078 67.4845 27.2037 67.4845 26.6714V25.0747C67.4845 24.6185 67.2159 24.2383 66.6404 24.2383ZM64.492 24.2383H61.6913C61.8831 23.8581 61.9982 23.554 62.1133 23.0218C62.2284 22.4895 62.2668 21.9573 62.3051 21.273V20.4366H64.492V24.2383Z" fill="#FF6900"/>
<path d="M71.5517 18.7637C69.48 18.7637 67.907 20.3224 67.907 22.3753C67.907 24.4663 69.5183 25.987 71.5517 25.987C73.6234 25.987 75.1964 24.3902 75.1964 22.3753C75.2348 20.2844 73.6234 18.7637 71.5517 18.7637ZM71.5517 24.3522C70.4391 24.3522 69.5951 23.5158 69.5951 22.3373C69.5951 21.1968 70.4007 20.3604 71.5517 20.3604C72.7027 20.3604 73.5083 21.1968 73.5083 22.3373C73.5083 23.5158 72.741 24.3522 71.5517 24.3522Z" fill="#FF6900"/>
<path d="M88.0095 18.7637C85.9377 18.7637 84.3647 20.3224 84.3647 22.3753C84.3647 24.4663 85.9761 25.987 88.0095 25.987C90.0812 25.987 91.6542 24.3902 91.6542 22.3753C91.6925 20.2844 90.0812 18.7637 88.0095 18.7637ZM88.0095 24.3522C86.8969 24.3522 86.0528 23.5158 86.0528 22.3373C86.0528 21.1968 86.8585 20.3604 88.0095 20.3604C89.1604 20.3604 89.9661 21.1968 89.9661 22.3373C89.9661 23.5158 89.1988 24.3522 88.0095 24.3522Z" fill="#FF6900"/>
<path d="M83.176 24.2383H82.754V19.6762C82.754 19.22 82.4471 18.8398 81.91 18.8398H77.9584C77.498 18.8398 77.191 19.144 77.191 19.6762V20.7787C77.191 21.5771 77.191 22.1854 77.0376 22.8697C76.8841 23.516 76.7307 23.9342 76.4621 24.2383H76.2703C75.7332 24.2383 75.4646 24.5805 75.4646 25.0747V26.6714C75.4646 27.2037 75.8483 27.5078 76.3086 27.5078C76.8074 27.5078 77.1527 27.2037 77.1527 26.6714V25.9111H82.3704V26.6714C82.3704 27.2037 82.754 27.5078 83.2144 27.5078C83.7132 27.5078 84.0584 27.2037 84.0584 26.6714V25.0747C84.0201 24.6185 83.7515 24.2383 83.176 24.2383ZM80.9892 24.2383H78.1885C78.3804 23.8581 78.4955 23.554 78.6106 23.0218C78.7257 22.4895 78.764 21.9573 78.8024 21.273V20.4366H80.9892V24.2383Z" fill="#FF6900"/>
<path d="M41.5491 16.5977C48.263 16.5977 53.4424 21.1597 53.4424 28.0029C53.4424 34.846 48.263 39.5222 41.5107 39.5222H33.9911C32.4565 39.5222 31.1904 38.5337 31.1904 36.7849V19.449C31.1904 17.7002 32.4565 16.5977 33.9911 16.5977H41.5491Z" fill="#FF6900"/>
<path d="M36.4465 28.6104C36.4465 26.4814 35.7559 24.5806 35.9861 23.364L35.9477 23.288C35.1804 24.0864 34.6816 23.8963 34.6049 23.6301C34.4898 23.0979 35.4106 22.4896 35.9093 22.2615C35.9093 22.2235 35.9477 22.1855 35.9477 22.1475C35.449 22.2235 34.8735 22.1475 34.8735 21.8053C34.8351 21.3871 35.6791 21.045 36.7534 21.121C36.7917 21.121 36.7917 21.083 36.8301 21.083C36.7534 21.045 36.6766 21.0069 36.5999 20.9689C36.3314 20.8169 36.2546 20.5887 36.3314 20.3987C36.4465 20.2086 36.7534 20.1325 36.9836 20.1325C37.3672 20.1325 37.7125 20.2466 37.9427 20.3226C37.9811 20.3226 37.9811 20.2846 38.0194 20.2846C37.9427 20.2086 37.866 20.1325 37.7892 20.0565C37.7125 19.9425 37.7125 19.7904 37.8276 19.6763C37.9811 19.5623 38.3647 19.5243 38.71 19.8284C38.7867 19.9044 38.8251 19.9425 38.9018 20.0185C38.9402 20.0185 38.9786 20.0185 39.0169 19.9805C38.9786 19.9044 38.9018 19.7904 38.9018 19.7143C38.8635 19.6003 38.9018 19.4862 39.0553 19.4482C39.2088 19.4102 39.4006 19.4862 39.4773 19.6383C39.5924 19.7904 39.6308 19.9805 39.6691 20.1325C38.9018 20.2086 36.8685 20.6648 36.8685 23.0979C36.8685 25.455 38.8635 27.9641 38.8635 31.6138C38.8635 32.9444 38.5565 34.275 37.3289 35.8337C36.3697 37.0503 34.8735 38.1908 32.5715 39.1413C32.9552 39.3313 33.4156 39.4454 33.9143 39.4454H34.7584C36.6766 38.3809 37.6358 37.4305 38.3264 36.518C39.6308 37.0883 40.8585 37.3164 41.9711 37.3164C44.0812 37.3164 45.8843 36.366 46.8051 34.6552C47.7642 34.0849 48.4165 32.9064 48.4548 32.07C49.0687 31.3097 49.1838 30.3972 48.9919 29.7509C48.9536 29.5989 48.8385 29.5989 48.6083 29.7129C46.7284 30.8535 44.8868 31.3857 43.122 31.3857C42.0478 31.3857 40.9736 31.2336 39.8226 30.8915C39.7459 29.6749 39.4773 28.6104 39.4006 28.0021C39.2471 27.1658 39.439 26.5575 40.3597 26.5575C41.0503 26.5575 42.278 26.7096 43.2755 27.1658C44.273 27.622 44.8485 28.4964 45.2705 28.4964C45.424 28.4964 45.6158 28.3823 45.6158 28.0402C45.6158 27.3178 45.3472 26.2153 45.0403 25.7971C45.9611 25.7591 46.69 25.7591 47.112 25.7971C47.9561 25.9492 47.9944 26.3674 48.1863 26.6335C48.3397 26.8996 48.6466 27.0137 48.9919 27.0137C49.6441 27.0137 50.0278 26.6715 50.0278 25.493C50.0278 22.9078 48.3781 21.6532 46.6516 21.6532C45.2321 21.6532 44.695 21.9574 43.3522 21.9574C42.3931 21.9574 41.6258 20.0185 40.5132 19.7904C40.0528 18.7259 38.9786 18.6118 38.288 19.1441C37.6741 18.7639 36.7534 18.992 36.715 19.6383C36.0244 19.4102 35.142 19.7904 35.5257 20.7028C33.8376 20.7408 33.5307 22.2235 34.6816 22.4136C33.2238 23.25 33.876 24.6566 35.1037 24.3525C35.1804 25.3789 35.6024 27.0137 35.6024 28.1542C35.6024 29.7129 34.8735 30.0931 33.9143 30.0931C33.147 30.0931 31.9961 29.827 31.2288 29.5989V30.7014C31.9961 30.8915 33.1854 31.1576 34.0678 31.1576C35.564 31.2336 36.4465 30.3212 36.4465 28.6104ZM39.861 32.1841C40.9352 32.4882 42.3931 32.6403 43.6208 32.5642C45.7692 32.4122 47.3806 31.6138 48.263 31.0435C47.7259 32.4122 45.6925 33.2486 43.6975 33.4767C43.6975 33.5907 43.6591 33.6667 43.6591 33.7808C45.1554 33.7048 46.5365 33.2105 47.1888 32.7923C46.8051 34.123 45.0019 34.6552 43.3522 34.7312C43.3139 34.8453 43.2755 34.9213 43.1988 35.0354C44.1579 35.0354 45.0787 34.8833 45.6158 34.6932C45.1554 35.6056 43.4673 36.366 41.7409 36.366C40.8968 36.366 39.8226 36.2139 38.9018 35.7577C39.554 34.5411 39.8226 33.3246 39.861 32.1841ZM44.1579 24.6186C44.3881 23.9343 44.5799 23.402 44.9636 23.0219C45.3472 22.6037 45.8076 22.4896 46.7667 22.4896C48.1095 22.4896 49.2221 23.8202 49.2221 25.7211C49.2221 25.9872 48.8385 25.9872 48.7234 25.7591C48.263 24.9608 47.6491 24.8467 46.6516 24.7707C45.9227 24.7326 45.0787 24.7707 44.273 24.8087C44.1579 24.7707 44.1195 24.6946 44.1579 24.6186Z" fill="black"/>
<path d="M31.1904 34.1247C31.9961 33.9726 32.8018 33.8205 32.8018 33.8205L32.9169 33.4023C32.5332 33.4023 31.8043 33.4023 31.1904 33.4023V34.1247Z" fill="black"/>
<path d="M39.9374 21.1597C40.2059 21.0837 40.628 21.3498 40.8582 21.768C41.0883 22.1862 41.0116 22.6424 40.7431 22.7185C40.4745 22.8325 40.0525 22.5284 39.8223 22.1102C39.7839 22.0341 39.7839 21.9961 39.7456 21.9201H39.7839C39.8607 21.9961 39.9758 22.0341 40.0525 21.9961C40.1676 21.9201 40.1292 21.768 40.0525 21.616C39.9758 21.5019 39.8607 21.3498 39.7456 21.3878L39.7072 21.3498C39.7839 21.2738 39.8607 21.1978 39.9374 21.1597ZM41.9324 25.5317C40.6663 25.2656 39.2852 24.8855 38.5179 23.821C38.5179 23.7829 38.4795 23.7829 38.4411 23.7829C38.4411 23.821 38.4411 23.821 38.4411 23.859C38.4411 23.935 38.4411 23.973 38.4411 24.0491L38.326 24.0871C38.1342 23.821 38.0958 23.4788 38.2877 23.2507C38.5562 22.9085 39.1317 22.9466 39.477 23.1367L39.4386 23.2127C39.2468 23.1747 39.0933 23.1747 38.9399 23.2507C38.8248 23.3648 38.8248 23.4408 38.9015 23.5929C39.5154 24.7334 41.3185 24.9615 43.4286 24.8094C43.6588 24.8094 43.6972 24.6954 43.7356 24.5813C43.9274 23.859 44.2727 23.2127 44.7714 22.7185C44.3878 22.7565 44.0041 22.7945 43.6972 22.7945C42.5846 22.8705 41.9707 22.7185 41.7789 22.5664L41.8173 22.4904C41.9324 22.5284 42.0475 22.5284 42.0858 22.4904C42.1242 22.4523 42.0858 22.4143 42.0475 22.3763C41.8557 22.1862 40.8965 21.2358 40.8965 21.2358C40.7814 20.3994 39.5921 20.3614 39.0933 21.1597L38.9399 21.1217C38.9783 20.9316 39.055 20.8176 39.1317 20.7035C38.1342 20.9316 37.5971 21.806 37.482 22.6424C37.06 26.2921 42.623 25.4557 44.2343 26.9004C44.2727 26.9384 44.3494 27.0144 44.3878 26.9764C44.4645 26.7863 43.7356 25.9499 41.9324 25.5317Z" fill="white"/>
<path d="M48.2625 31.0059C47.3417 31.5761 45.7304 32.3745 43.6203 32.5266C42.3926 32.6026 40.9347 32.4505 39.8605 32.1464C39.8605 32.4885 39.8221 32.8687 39.7454 33.2109C40.3592 33.3629 41.3951 33.553 42.9681 33.591C42.8913 34.0092 42.4693 35.3779 41.3951 36.2903C43.3517 36.3663 45.1165 35.606 45.6536 34.6175C45.1165 34.8076 44.1957 34.9597 43.2366 34.9597C43.275 34.8836 43.3517 34.7696 43.3901 34.6555C45.0398 34.5795 46.843 34.0473 47.2266 32.7166C46.5744 33.1348 45.1932 33.6291 43.697 33.7051C43.697 33.6291 43.7354 33.515 43.7354 33.401C45.692 33.2109 47.7254 32.3745 48.2625 31.0059Z" fill="white"/>
</g>
<defs>
<clipPath id="clip0_701_7217">
<rect width="131" height="56" fill="white"/>
</clipPath>
</defs>
</svg>
