<svg width="452" height="54" viewBox="0 0 452 54" fill="none" xmlns="http://www.w3.org/2000/svg">
<g clip-path="url(#clip0_3814_20)">
<path d="M64.988 21.2502C64.3374 19.6492 63.0362 18.1209 61.4459 17.0292C56.8916 14.1182 50.0242 13.8998 45.3254 16.5198C42.7952 17.8298 41.1326 20.4497 40.5543 23.0697C39.6145 27.4362 39.8314 32.6761 43.229 35.9511C47.1326 39.3715 52.8434 40.1721 57.9037 38.7166C58.1205 38.6438 58.9157 38.4982 59.4218 38.2071L59.5663 38.1343C61.1567 37.4794 62.6025 36.3877 63.7591 34.9322C66.3615 31.2206 66.5061 25.544 64.988 21.2502ZM56.7471 31.075C56.6025 31.8756 56.0242 32.7489 55.1567 33.1128C53.7832 33.695 51.9037 33.5494 50.6025 32.8217C49.5181 32.0939 49.3736 30.7839 49.229 29.5467C49.1567 27.1451 48.9398 24.6707 49.5904 22.4874C50.0965 21.1047 51.5422 20.8136 52.8434 20.668C54.2169 20.668 55.5181 20.8864 56.3856 21.978C56.8916 22.7785 56.8916 23.7974 56.9639 24.7435C56.8916 26.7812 57.1085 29.1101 56.7471 31.075Z" fill="#2B55A2"/>
<path d="M15.3976 33.259C14.241 33.1863 12.9398 33.259 11.8554 33.1863V21.1054L11.9277 21.0326H15.3976C15.4699 19.0677 15.4699 16.9571 15.3253 15.1377L2.24096 14.9922L0.0722833 15.065C0.0722833 16.8844 0.0722833 18.9949 0.0722833 20.8871C1.22891 20.9598 2.38554 20.8871 3.54216 20.9598V32.6768V33.1863L0.0722833 33.259C-5.88041e-06 35.1512 -5.88041e-06 37.0434 0.0722833 38.9356H15.4699V33.259H15.3976Z" fill="#2B55A2"/>
<path d="M54.1446 41.4823C52.6988 43.5928 50.8193 45.6306 48.7952 47.2316C48.7229 47.3044 48.506 47.3044 48.4337 47.2316C47.5663 46.6494 46.6265 46.2128 45.759 45.7033C46.8434 44.3934 47.9277 43.0106 48.7952 41.5551H47.7108C46.8434 42.8651 45.9036 44.175 44.8193 45.3395C43.3012 44.6845 41.8554 44.175 40.3373 43.7384L40.1928 43.5928C40.4096 42.8651 40.9157 42.2101 41.0602 41.5551H40.1205L39.1807 43.4473C37.1566 43.0106 34.8434 42.7923 32.747 42.6467C32.6747 42.3556 32.747 41.919 32.6747 41.6279H31.7349C31.6626 42.0645 31.8072 42.3556 31.6626 42.7195C29.494 42.7923 27.3976 43.0834 25.3735 43.4473L24.3614 41.4823C24 41.4823 23.6385 41.4095 23.4217 41.5551L24.2891 43.5928L24.1446 43.6656C22.5542 44.1023 21.0361 44.6845 19.5181 45.2667L19.3735 45.1939C18.3614 44.1023 17.4217 42.9378 16.6988 41.7734C16.5542 41.1912 15.8313 41.5551 15.4699 41.4823C16.3373 43.0106 17.4217 44.3206 18.506 45.7033C17.5663 46.2856 16.6265 46.8678 15.6144 47.3044C13.5181 45.7033 11.5663 43.6656 10.1205 41.4823C9.68674 41.4095 9.39758 41.4095 9.03613 41.4823C11.5663 45.4122 15.4699 48.9055 19.5181 50.9432C19.5181 50.9432 19.5181 50.9432 19.5903 50.9432C19.5903 50.9432 19.6626 51.016 19.5903 51.016C22.3373 52.326 25.3012 53.3449 28.4096 53.7087C39.1084 55.0915 49.3012 50.5066 55.2289 41.4823C54.9397 41.4823 54.4337 41.4823 54.1446 41.4823ZM39.6144 44.6117L39.6867 44.5389C41.2048 44.9028 42.6506 45.3395 43.9518 45.9944C42.8675 47.3044 41.4217 48.3961 40.0482 49.2694C39.253 49.7788 38.4578 50.2882 37.5903 50.6521L36.1446 50.0699L36.2169 49.8516C37.5181 48.1777 38.6024 46.4311 39.6144 44.6117ZM32.747 43.5928C34.7711 43.6656 36.7229 43.8112 38.6024 44.2478V44.3206C37.6626 46.2128 36.4337 47.9594 35.0602 49.6333C34.4819 49.706 33.9036 49.4877 33.3253 49.4149L32.747 49.3422C32.6747 47.3772 32.6024 45.6306 32.747 43.5928ZM26.0241 44.175C27.8313 43.8112 29.7108 43.5201 31.6626 43.5201L31.7349 49.3422C31.012 49.4877 30.2169 49.4877 29.494 49.706C28.0482 48.0322 26.8916 46.2128 25.8795 44.3206L26.0241 44.175ZM20.3855 46.0672C21.759 45.4122 23.2048 44.9028 24.6506 44.5389H24.7952C25.8072 46.4311 27.0361 48.2505 28.3373 49.9971C27.8313 50.2882 27.253 50.4338 26.747 50.7249C24.4337 49.5605 22.265 48.0322 20.3855 46.0672V46.0672ZM24.8675 51.9621C21.9036 51.2343 19.2289 49.9244 16.6988 48.105V48.0322C17.5663 47.5228 18.3614 46.9405 19.3012 46.5767C21.3253 48.5416 23.3494 49.9971 25.5904 51.4527C25.3735 51.5982 25.0843 51.8166 24.8675 51.9621ZM37.8072 52.3988C34.1205 53.1993 30 53.1993 26.3132 52.326C26.241 52.1804 26.4578 52.1077 26.6024 52.0349C29.8554 49.9244 34.9157 49.9244 38.0964 52.1804C38.1687 52.3988 37.8795 52.326 37.8072 52.3988ZM41.1325 51.4527L39.4699 51.9621C39.1807 51.8166 38.9638 51.5982 38.6747 51.3799L38.747 51.3071C40.9879 49.9971 43.012 48.3961 44.8916 46.5039C45.8313 46.8678 46.7711 47.3772 47.5663 47.9594C45.6867 49.5605 43.4458 50.5794 41.1325 51.4527Z" fill="#2B55A2"/>
<path d="M10.1205 12.3718C10.988 11.2074 11.9277 10.043 12.9398 8.95135C13.8795 8.07804 14.6747 7.2775 15.6868 6.62251C16.6265 7.20472 17.6386 7.71416 18.506 8.22359C17.4217 9.53356 16.3374 10.9163 15.5422 12.3718C15.759 12.4446 16.2651 12.4446 16.5542 12.3718C17.4217 11.0619 18.3615 9.82467 19.5181 8.66025C21.0362 9.24246 22.4819 9.82467 24 10.1886L24.1446 10.3341L23.1325 12.3718C23.494 12.4446 23.7831 12.4446 24.1446 12.3718C24.4337 11.7896 24.7229 11.1346 25.0843 10.5524C27.1084 10.9891 29.2048 11.2074 31.3735 11.2802C31.6627 11.4985 31.4458 12.008 31.5181 12.3718H32.5301C32.6024 12.008 32.5301 11.6441 32.6024 11.353C34.6265 11.2802 36.7229 11.0619 38.6747 10.5524L38.8193 10.6252L39.759 12.4446C40.0482 12.4446 40.4819 12.5174 40.7711 12.3718L39.9036 10.4069L39.9759 10.3341C41.5663 9.89745 43.0843 9.31523 44.6024 8.66025C45.6868 9.82467 46.6988 11.1346 47.6386 12.4446C48 12.4446 48.4337 12.5174 48.6506 12.3718C48.2169 11.6441 47.7108 10.8435 47.1325 10.1886C46.6988 9.53356 46.1928 8.95135 45.6145 8.29637V8.15081L48.0723 6.76807L48.4337 6.54974C50.5301 8.15081 52.4096 10.1158 53.9277 12.2991C54.3615 12.2991 54.7229 12.4446 55.0121 12.2991C50.3855 5.23976 42.6506 0.727634 34.3374 0.0726478L34.2651 0.145424L34.1928 0.0726478C33.253 -0.000128511 32.0964 -0.0729048 31.0843 -0.000128514C30.7229 -0.000128514 30.2169 -0.000128511 29.7831 0.0726478C21.4699 0.727634 13.8072 5.09421 8.96387 12.3718C9.32531 12.3718 9.75905 12.5174 10.1205 12.3718ZM24.5783 9.31524H24.4337C22.988 8.95135 21.6145 8.5147 20.3133 7.93249L20.3856 7.71416C22.3374 5.89475 24.2892 4.36645 26.5301 3.20203C27.0362 3.42036 27.5422 3.56591 28.1205 3.85701L28.0482 4.14812C26.6747 5.82197 25.5904 7.5686 24.5783 9.31524ZM31.5181 10.2613C30.5783 10.4069 29.6386 10.2613 28.6988 10.1886C27.759 10.043 26.6024 9.97022 25.6627 9.60634C26.6747 7.71416 27.8313 5.89475 29.2771 4.2209L31.5181 4.512C31.5904 6.33141 31.5181 8.36914 31.5181 10.2613ZM32.6024 10.3341C32.5301 8.5147 32.6024 6.47696 32.6024 4.58478C33.3253 4.512 34.0482 4.36645 34.7711 4.29367C36.1446 6.0403 37.4458 7.78693 38.3855 9.67912C36.4337 10.043 34.5542 10.3341 32.6024 10.3341ZM43.7349 7.85971C42.3615 8.44192 40.988 9.02413 39.4699 9.31524C38.3855 7.49583 37.2289 5.67642 35.8554 3.92979C36.3615 3.63869 36.9398 3.42036 37.4458 3.20203C39.6868 4.36645 41.9277 5.96753 43.7349 7.78693V7.85971ZM39.253 1.96483C42.2169 2.69259 44.9639 4.00257 47.4217 5.82197L47.3494 5.96753L44.9639 7.2775H44.8193C42.9398 5.38532 40.8434 3.78424 38.6024 2.54704C38.6747 2.32871 38.9639 2.18316 39.253 1.96483ZM37.8072 1.67373C34.7711 3.92979 29.8554 4.14812 26.6747 2.11038C26.5301 1.96483 26.1687 1.89205 26.0964 1.67373C29.8554 0.800411 34.1928 0.727634 37.8072 1.67373ZM16.5542 5.89475C18.7229 4.29367 21.1807 3.05648 23.7831 2.25594C23.8554 2.18316 23.9277 2.03761 24.0723 2.03761V2.11038C24.3615 2.18316 24.5783 1.89205 24.7952 2.03761C25.0121 2.18316 25.2289 2.32871 25.4458 2.54704C23.2771 3.85701 21.1807 5.45809 19.2289 7.42305C18.2892 7.13195 17.4217 6.54974 16.5542 5.89475Z" fill="#2B55A2"/>
<path d="M31.518 33.4769C28.265 34.3503 24.6505 33.6953 22.3373 31.2209C22.0481 30.857 21.9035 30.4931 21.6144 30.1292H16.9156C16.8433 32.8947 16.8433 36.0969 16.9156 38.8624H22.1204L22.1927 37.1885C22.771 37.4796 23.3493 37.8435 23.9999 38.1346C27.6144 39.6629 32.3132 40.0268 35.8553 38.1346C38.4577 36.6791 39.8312 33.9136 39.4698 30.857C39.1083 27.9459 36.2891 25.2532 33.4698 24.5255L25.012 22.0511L24.4336 21.8327C24.1445 21.6144 23.9999 21.2505 24.0722 20.8866C24.7228 19.7222 26.2409 20.0861 27.3975 20.1589C29.8553 20.5228 32.3132 21.3233 33.759 23.5794C35.277 23.5794 37.0843 23.5794 38.7469 23.5066C38.8192 20.6683 38.7469 18.1939 38.6746 15.3556C37.0843 15.2829 35.2047 15.2829 33.6144 15.4284C33.5421 15.8651 33.6867 16.4473 33.5421 16.8112L31.9517 15.9379C28.1204 14.3368 22.771 14.1184 19.2288 16.6656C16.9879 18.3395 16.265 21.3233 16.8433 23.8705C17.277 26.3449 19.6626 28.1643 21.9035 29.0376C25.012 30.1292 28.265 30.9298 31.3734 32.0214C31.6626 32.167 32.0963 32.4581 32.024 32.8219C32.0963 33.1858 31.8071 33.4042 31.518 33.4769Z" fill="#2B55A2"/>
</g>
<path d="M86.9 15.506H84.66V20H83.652V10.2H84.66V14.596H86.9L90.218 10.2H91.338L87.698 14.96L91.548 20H90.358L86.9 15.506ZM95.8583 20.07C95.1489 20.07 94.5096 19.9113 93.9403 19.594C93.3709 19.2673 92.9229 18.8193 92.5963 18.25C92.2696 17.6807 92.1063 17.0367 92.1063 16.318C92.1063 15.5993 92.2696 14.9553 92.5963 14.386C92.9229 13.8167 93.3709 13.3733 93.9403 13.056C94.5096 12.7387 95.1489 12.58 95.8583 12.58C96.5676 12.58 97.2069 12.7387 97.7763 13.056C98.3456 13.3733 98.7889 13.8167 99.1063 14.386C99.4329 14.9553 99.5963 15.5993 99.5963 16.318C99.5963 17.0367 99.4329 17.6807 99.1063 18.25C98.7889 18.8193 98.3456 19.2673 97.7763 19.594C97.2069 19.9113 96.5676 20.07 95.8583 20.07ZM95.8583 19.188C96.3809 19.188 96.8476 19.0713 97.2583 18.838C97.6783 18.5953 98.0049 18.2547 98.2383 17.816C98.4716 17.3773 98.5883 16.878 98.5883 16.318C98.5883 15.758 98.4716 15.2587 98.2383 14.82C98.0049 14.3813 97.6783 14.0453 97.2583 13.812C96.8476 13.5693 96.3809 13.448 95.8583 13.448C95.3356 13.448 94.8643 13.5693 94.4443 13.812C94.0336 14.0453 93.7069 14.3813 93.4642 14.82C93.2309 15.2587 93.1143 15.758 93.1143 16.318C93.1143 16.878 93.2309 17.3773 93.4642 17.816C93.7069 18.2547 94.0336 18.5953 94.4443 18.838C94.8643 19.0713 95.3356 19.188 95.8583 19.188ZM109.953 12.636V20H109.043V14.176L106.061 19.104H105.613L102.631 14.162V20H101.721V12.636H102.729L105.851 17.942L109.029 12.636H109.953ZM119.389 12.636V20H118.395V13.518H113.775V20H112.781V12.636H119.389ZM124.749 12.58C125.71 12.58 126.447 12.8227 126.961 13.308C127.474 13.784 127.731 14.4933 127.731 15.436V20H126.779V18.852C126.555 19.2347 126.223 19.5333 125.785 19.748C125.355 19.9627 124.842 20.07 124.245 20.07C123.423 20.07 122.77 19.874 122.285 19.482C121.799 19.09 121.557 18.572 121.557 17.928C121.557 17.3027 121.781 16.7987 122.229 16.416C122.686 16.0333 123.409 15.842 124.399 15.842H126.737V15.394C126.737 14.7593 126.559 14.2787 126.205 13.952C125.85 13.616 125.332 13.448 124.651 13.448C124.184 13.448 123.736 13.5273 123.307 13.686C122.877 13.8353 122.509 14.0453 122.201 14.316L121.753 13.574C122.126 13.2567 122.574 13.014 123.097 12.846C123.619 12.6687 124.17 12.58 124.749 12.58ZM124.399 19.286C124.959 19.286 125.439 19.16 125.841 18.908C126.242 18.6467 126.541 18.2733 126.737 17.788V16.584H124.427C123.167 16.584 122.537 17.0227 122.537 17.9C122.537 18.3293 122.7 18.67 123.027 18.922C123.353 19.1647 123.811 19.286 124.399 19.286ZM130.377 12.636H131.371V15.898H136.005V12.636H136.999V20H136.005V16.752H131.371V20H130.377V12.636ZM139.824 12.636H140.818V18.488L145.732 12.636H146.614V20H145.62V14.148L140.72 20H139.824V12.636ZM155.119 12.636V20H154.209V17.564H151.899H151.619L149.911 20H148.833L150.667 17.424C150.097 17.2653 149.659 16.9947 149.351 16.612C149.043 16.2293 148.889 15.744 148.889 15.156C148.889 14.3347 149.169 13.7093 149.729 13.28C150.289 12.8507 151.054 12.636 152.025 12.636H155.119ZM149.897 15.184C149.897 16.276 150.592 16.822 151.983 16.822H154.209V13.518H152.053C150.615 13.518 149.897 14.0733 149.897 15.184ZM164.697 20.07C163.969 20.07 163.316 19.9113 162.737 19.594C162.168 19.2767 161.72 18.8333 161.393 18.264C161.066 17.6853 160.903 17.0367 160.903 16.318C160.903 15.5993 161.066 14.9553 161.393 14.386C161.72 13.8167 162.168 13.3733 162.737 13.056C163.316 12.7387 163.969 12.58 164.697 12.58C165.332 12.58 165.896 12.706 166.391 12.958C166.895 13.2007 167.292 13.56 167.581 14.036L166.839 14.54C166.596 14.176 166.288 13.9053 165.915 13.728C165.542 13.5413 165.136 13.448 164.697 13.448C164.165 13.448 163.684 13.5693 163.255 13.812C162.835 14.0453 162.504 14.3813 162.261 14.82C162.028 15.2587 161.911 15.758 161.911 16.318C161.911 16.8873 162.028 17.3913 162.261 17.83C162.504 18.2593 162.835 18.5953 163.255 18.838C163.684 19.0713 164.165 19.188 164.697 19.188C165.136 19.188 165.542 19.0993 165.915 18.922C166.288 18.7447 166.596 18.474 166.839 18.11L167.581 18.614C167.292 19.09 166.895 19.454 166.391 19.706C165.887 19.9487 165.322 20.07 164.697 20.07ZM175.823 16.626H169.663C169.719 17.3913 170.013 18.012 170.545 18.488C171.077 18.9547 171.749 19.188 172.561 19.188C173.018 19.188 173.438 19.1087 173.821 18.95C174.203 18.782 174.535 18.5393 174.815 18.222L175.375 18.866C175.048 19.258 174.637 19.5567 174.143 19.762C173.657 19.9673 173.121 20.07 172.533 20.07C171.777 20.07 171.105 19.9113 170.517 19.594C169.938 19.2673 169.485 18.8193 169.159 18.25C168.832 17.6807 168.669 17.0367 168.669 16.318C168.669 15.5993 168.823 14.9553 169.131 14.386C169.448 13.8167 169.877 13.3733 170.419 13.056C170.969 12.7387 171.585 12.58 172.267 12.58C172.948 12.58 173.559 12.7387 174.101 13.056C174.642 13.3733 175.067 13.8167 175.375 14.386C175.683 14.946 175.837 15.59 175.837 16.318L175.823 16.626ZM172.267 13.434C171.557 13.434 170.96 13.6627 170.475 14.12C169.999 14.568 169.728 15.156 169.663 15.884H174.885C174.819 15.156 174.544 14.568 174.059 14.12C173.583 13.6627 172.985 13.434 172.267 13.434ZM181.831 12.58C182.522 12.58 183.147 12.7387 183.707 13.056C184.267 13.364 184.706 13.8027 185.023 14.372C185.34 14.9413 185.499 15.59 185.499 16.318C185.499 17.0553 185.34 17.7087 185.023 18.278C184.706 18.8473 184.267 19.2907 183.707 19.608C183.156 19.916 182.531 20.07 181.831 20.07C181.234 20.07 180.692 19.9487 180.207 19.706C179.731 19.454 179.339 19.09 179.031 18.614V22.716H178.037V12.636H178.989V14.092C179.288 13.6067 179.68 13.2333 180.165 12.972C180.66 12.7107 181.215 12.58 181.831 12.58ZM181.761 19.188C182.274 19.188 182.741 19.0713 183.161 18.838C183.581 18.5953 183.908 18.2547 184.141 17.816C184.384 17.3773 184.505 16.878 184.505 16.318C184.505 15.758 184.384 15.2633 184.141 14.834C183.908 14.3953 183.581 14.0547 183.161 13.812C182.741 13.5693 182.274 13.448 181.761 13.448C181.238 13.448 180.767 13.5693 180.347 13.812C179.936 14.0547 179.61 14.3953 179.367 14.834C179.134 15.2633 179.017 15.758 179.017 16.318C179.017 16.878 179.134 17.3773 179.367 17.816C179.61 18.2547 179.936 18.5953 180.347 18.838C180.767 19.0713 181.238 19.188 181.761 19.188ZM192.541 13.518H189.755V20H188.761V13.518H185.975V12.636H192.541V13.518ZM193.978 12.636H194.972V18.488L199.886 12.636H200.768V20H199.774V14.148L194.874 20H193.978V12.636ZM212.507 16.304C212.507 17.452 212.129 18.3527 211.373 19.006C210.617 19.6593 209.548 20.014 208.167 20.07V22.716H207.201V20.084C205.829 20.028 204.765 19.6733 204.009 19.02C203.262 18.3573 202.889 17.452 202.889 16.304C202.889 15.1653 203.262 14.274 204.009 13.63C204.765 12.986 205.829 12.636 207.201 12.58V9.612H208.167V12.58C209.548 12.6453 210.617 13 211.373 13.644C212.129 14.288 212.507 15.1747 212.507 16.304ZM203.869 16.304C203.869 17.1813 204.149 17.8673 204.709 18.362C205.278 18.8567 206.109 19.1367 207.201 19.202V13.462C206.118 13.518 205.292 13.7933 204.723 14.288C204.154 14.7733 203.869 15.4453 203.869 16.304ZM208.167 19.202C209.259 19.146 210.09 18.8707 210.659 18.376C211.238 17.8813 211.527 17.1907 211.527 16.304C211.527 15.436 211.238 14.7593 210.659 14.274C210.09 13.7887 209.259 13.518 208.167 13.462V19.202ZM214.609 12.636H215.603V18.488L220.517 12.636H221.399V20H220.405V14.148L215.505 20H214.609V12.636ZM231.92 19.132V21.848H230.982V20H224.248V12.636H225.242V19.132H229.736V12.636H230.73V19.132H231.92ZM233.818 12.636H234.812V18.488L239.726 12.636H240.608V20H239.614V14.148L234.714 20H233.818V12.636ZM247.251 12.58C247.942 12.58 248.567 12.7387 249.127 13.056C249.687 13.364 250.126 13.8027 250.443 14.372C250.76 14.9413 250.919 15.59 250.919 16.318C250.919 17.0553 250.76 17.7087 250.443 18.278C250.126 18.8473 249.687 19.2907 249.127 19.608C248.576 19.916 247.951 20.07 247.251 20.07C246.654 20.07 246.112 19.9487 245.627 19.706C245.151 19.454 244.759 19.09 244.451 18.614V22.716H243.457V12.636H244.409V14.092C244.708 13.6067 245.1 13.2333 245.585 12.972C246.08 12.7107 246.635 12.58 247.251 12.58ZM247.181 19.188C247.694 19.188 248.161 19.0713 248.581 18.838C249.001 18.5953 249.328 18.2547 249.561 17.816C249.804 17.3773 249.925 16.878 249.925 16.318C249.925 15.758 249.804 15.2633 249.561 14.834C249.328 14.3953 249.001 14.0547 248.581 13.812C248.161 13.5693 247.694 13.448 247.181 13.448C246.658 13.448 246.187 13.5693 245.767 13.812C245.356 14.0547 245.03 14.3953 244.787 14.834C244.554 15.2633 244.437 15.758 244.437 16.318C244.437 16.878 244.554 17.3773 244.787 17.816C245.03 18.2547 245.356 18.5953 245.767 18.838C246.187 19.0713 246.658 19.188 247.181 19.188ZM256.093 20.07C255.383 20.07 254.744 19.9113 254.175 19.594C253.605 19.2673 253.157 18.8193 252.831 18.25C252.504 17.6807 252.341 17.0367 252.341 16.318C252.341 15.5993 252.504 14.9553 252.831 14.386C253.157 13.8167 253.605 13.3733 254.175 13.056C254.744 12.7387 255.383 12.58 256.093 12.58C256.802 12.58 257.441 12.7387 258.011 13.056C258.58 13.3733 259.023 13.8167 259.341 14.386C259.667 14.9553 259.831 15.5993 259.831 16.318C259.831 17.0367 259.667 17.6807 259.341 18.25C259.023 18.8193 258.58 19.2673 258.011 19.594C257.441 19.9113 256.802 20.07 256.093 20.07ZM256.093 19.188C256.615 19.188 257.082 19.0713 257.493 18.838C257.913 18.5953 258.239 18.2547 258.473 17.816C258.706 17.3773 258.823 16.878 258.823 16.318C258.823 15.758 258.706 15.2587 258.473 14.82C258.239 14.3813 257.913 14.0453 257.493 13.812C257.082 13.5693 256.615 13.448 256.093 13.448C255.57 13.448 255.099 13.5693 254.679 13.812C254.268 14.0453 253.941 14.3813 253.699 14.82C253.465 15.2587 253.349 15.758 253.349 16.318C253.349 16.878 253.465 17.3773 253.699 17.816C253.941 18.2547 254.268 18.5953 254.679 18.838C255.099 19.0713 255.57 19.188 256.093 19.188ZM266.645 16.192C267.644 16.4253 268.143 17.0273 268.143 17.998C268.143 18.642 267.905 19.1367 267.429 19.482C266.953 19.8273 266.244 20 265.301 20H261.955V12.636H265.203C266.043 12.636 266.701 12.7993 267.177 13.126C267.653 13.4527 267.891 13.9193 267.891 14.526C267.891 14.9273 267.779 15.2727 267.555 15.562C267.34 15.842 267.037 16.052 266.645 16.192ZM262.921 15.912H265.133C265.702 15.912 266.136 15.8047 266.435 15.59C266.743 15.3753 266.897 15.0627 266.897 14.652C266.897 14.2413 266.743 13.9333 266.435 13.728C266.136 13.5227 265.702 13.42 265.133 13.42H262.921V15.912ZM265.259 19.216C265.894 19.216 266.37 19.1133 266.687 18.908C267.004 18.7027 267.163 18.3807 267.163 17.942C267.163 17.5033 267.018 17.1813 266.729 16.976C266.44 16.7613 265.982 16.654 265.357 16.654H262.921V19.216H265.259ZM273.007 12.58C273.968 12.58 274.705 12.8227 275.219 13.308C275.732 13.784 275.989 14.4933 275.989 15.436V20H275.037V18.852C274.813 19.2347 274.481 19.5333 274.043 19.748C273.613 19.9627 273.1 20.07 272.503 20.07C271.681 20.07 271.028 19.874 270.543 19.482C270.057 19.09 269.815 18.572 269.815 17.928C269.815 17.3027 270.039 16.7987 270.487 16.416C270.944 16.0333 271.667 15.842 272.657 15.842H274.995V15.394C274.995 14.7593 274.817 14.2787 274.463 13.952C274.108 13.616 273.59 13.448 272.909 13.448C272.442 13.448 271.994 13.5273 271.565 13.686C271.135 13.8353 270.767 14.0453 270.459 14.316L270.011 13.574C270.384 13.2567 270.832 13.014 271.355 12.846C271.877 12.6687 272.428 12.58 273.007 12.58ZM272.657 19.286C273.217 19.286 273.697 19.16 274.099 18.908C274.5 18.6467 274.799 18.2733 274.995 17.788V16.584H272.685C271.425 16.584 270.795 17.0227 270.795 17.9C270.795 18.3293 270.958 18.67 271.285 18.922C271.611 19.1647 272.069 19.286 272.657 19.286ZM278.635 12.636H279.629V15.898H284.263V12.636H285.257V20H284.263V16.752H279.629V20H278.635V12.636ZM290.616 12.58C291.577 12.58 292.315 12.8227 292.828 13.308C293.341 13.784 293.598 14.4933 293.598 15.436V20H292.646V18.852C292.422 19.2347 292.091 19.5333 291.652 19.748C291.223 19.9627 290.709 20.07 290.112 20.07C289.291 20.07 288.637 19.874 288.152 19.482C287.667 19.09 287.424 18.572 287.424 17.928C287.424 17.3027 287.648 16.7987 288.096 16.416C288.553 16.0333 289.277 15.842 290.266 15.842H292.604V15.394C292.604 14.7593 292.427 14.2787 292.072 13.952C291.717 13.616 291.199 13.448 290.518 13.448C290.051 13.448 289.603 13.5273 289.174 13.686C288.745 13.8353 288.376 14.0453 288.068 14.316L287.62 13.574C287.993 13.2567 288.441 13.014 288.964 12.846C289.487 12.6687 290.037 12.58 290.616 12.58ZM290.266 19.286C290.826 19.286 291.307 19.16 291.708 18.908C292.109 18.6467 292.408 18.2733 292.604 17.788V16.584H290.294C289.034 16.584 288.404 17.0227 288.404 17.9C288.404 18.3293 288.567 18.67 288.894 18.922C289.221 19.1647 289.678 19.286 290.266 19.286ZM306.516 12.636V20H305.522V13.518H300.902V20H299.908V12.636H306.516ZM312.38 20.07C311.67 20.07 311.031 19.9113 310.462 19.594C309.892 19.2673 309.444 18.8193 309.118 18.25C308.791 17.6807 308.628 17.0367 308.628 16.318C308.628 15.5993 308.791 14.9553 309.118 14.386C309.444 13.8167 309.892 13.3733 310.462 13.056C311.031 12.7387 311.67 12.58 312.38 12.58C313.089 12.58 313.728 12.7387 314.298 13.056C314.867 13.3733 315.31 13.8167 315.628 14.386C315.954 14.9553 316.118 15.5993 316.118 16.318C316.118 17.0367 315.954 17.6807 315.628 18.25C315.31 18.8193 314.867 19.2673 314.298 19.594C313.728 19.9113 313.089 20.07 312.38 20.07ZM312.38 19.188C312.902 19.188 313.369 19.0713 313.78 18.838C314.2 18.5953 314.526 18.2547 314.76 17.816C314.993 17.3773 315.11 16.878 315.11 16.318C315.11 15.758 314.993 15.2587 314.76 14.82C314.526 14.3813 314.2 14.0453 313.78 13.812C313.369 13.5693 312.902 13.448 312.38 13.448C311.857 13.448 311.386 13.5693 310.966 13.812C310.555 14.0453 310.228 14.3813 309.986 14.82C309.752 15.2587 309.636 15.758 309.636 16.318C309.636 16.878 309.752 17.3773 309.986 17.816C310.228 18.2547 310.555 18.5953 310.966 18.838C311.386 19.0713 311.857 19.188 312.38 19.188ZM324.986 20.07C324.258 20.07 323.605 19.9113 323.026 19.594C322.457 19.2767 322.009 18.8333 321.682 18.264C321.356 17.6853 321.192 17.0367 321.192 16.318C321.192 15.5993 321.356 14.9553 321.682 14.386C322.009 13.8167 322.457 13.3733 323.026 13.056C323.605 12.7387 324.258 12.58 324.986 12.58C325.621 12.58 326.186 12.706 326.68 12.958C327.184 13.2007 327.581 13.56 327.87 14.036L327.128 14.54C326.886 14.176 326.578 13.9053 326.204 13.728C325.831 13.5413 325.425 13.448 324.986 13.448C324.454 13.448 323.974 13.5693 323.544 13.812C323.124 14.0453 322.793 14.3813 322.55 14.82C322.317 15.2587 322.2 15.758 322.2 16.318C322.2 16.8873 322.317 17.3913 322.55 17.83C322.793 18.2593 323.124 18.5953 323.544 18.838C323.974 19.0713 324.454 19.188 324.986 19.188C325.425 19.188 325.831 19.0993 326.204 18.922C326.578 18.7447 326.886 18.474 327.128 18.11L327.87 18.614C327.581 19.09 327.184 19.454 326.68 19.706C326.176 19.9487 325.612 20.07 324.986 20.07ZM334.838 13.518H332.052V20H331.058V13.518H328.272V12.636H334.838V13.518ZM338.809 12.58C339.771 12.58 340.508 12.8227 341.021 13.308C341.535 13.784 341.791 14.4933 341.791 15.436V20H340.839V18.852C340.615 19.2347 340.284 19.5333 339.845 19.748C339.416 19.9627 338.903 20.07 338.305 20.07C337.484 20.07 336.831 19.874 336.345 19.482C335.86 19.09 335.617 18.572 335.617 17.928C335.617 17.3027 335.841 16.7987 336.289 16.416C336.747 16.0333 337.47 15.842 338.459 15.842H340.797V15.394C340.797 14.7593 340.62 14.2787 340.265 13.952C339.911 13.616 339.393 13.448 338.711 13.448C338.245 13.448 337.797 13.5273 337.367 13.686C336.938 13.8353 336.569 14.0453 336.261 14.316L335.813 13.574C336.187 13.2567 336.635 13.014 337.157 12.846C337.68 12.6687 338.231 12.58 338.809 12.58ZM338.459 19.286C339.019 19.286 339.5 19.16 339.901 18.908C340.303 18.6467 340.601 18.2733 340.797 17.788V16.584H338.487C337.227 16.584 336.597 17.0227 336.597 17.9C336.597 18.3293 336.761 18.67 337.087 18.922C337.414 19.1647 337.871 19.286 338.459 19.286ZM344.437 12.636H345.431V15.898H350.065V12.636H351.059V20H350.065V16.752H345.431V20H344.437V12.636ZM361.067 19.132V21.778H360.129V20H353.535V21.778H352.597V19.132H353.017C353.511 19.104 353.847 18.74 354.025 18.04C354.202 17.34 354.323 16.36 354.389 15.1L354.487 12.636H359.919V19.132H361.067ZM355.299 15.156C355.252 16.2013 355.163 17.0647 355.033 17.746C354.902 18.418 354.669 18.88 354.333 19.132H358.925V13.518H355.383L355.299 15.156ZM365.538 12.58C366.499 12.58 367.237 12.8227 367.75 13.308C368.263 13.784 368.52 14.4933 368.52 15.436V20H367.568V18.852C367.344 19.2347 367.013 19.5333 366.574 19.748C366.145 19.9627 365.631 20.07 365.034 20.07C364.213 20.07 363.559 19.874 363.074 19.482C362.589 19.09 362.346 18.572 362.346 17.928C362.346 17.3027 362.57 16.7987 363.018 16.416C363.475 16.0333 364.199 15.842 365.188 15.842H367.526V15.394C367.526 14.7593 367.349 14.2787 366.994 13.952C366.639 13.616 366.121 13.448 365.44 13.448C364.973 13.448 364.525 13.5273 364.096 13.686C363.667 13.8353 363.298 14.0453 362.99 14.316L362.542 13.574C362.915 13.2567 363.363 13.014 363.886 12.846C364.409 12.6687 364.959 12.58 365.538 12.58ZM365.188 19.286C365.748 19.286 366.229 19.16 366.63 18.908C367.031 18.6467 367.33 18.2733 367.526 17.788V16.584H365.216C363.956 16.584 363.326 17.0227 363.326 17.9C363.326 18.3293 363.489 18.67 363.816 18.922C364.143 19.1647 364.6 19.286 365.188 19.286ZM374.96 12.58C375.651 12.58 376.276 12.7387 376.836 13.056C377.396 13.364 377.835 13.8027 378.152 14.372C378.469 14.9413 378.628 15.59 378.628 16.318C378.628 17.0553 378.469 17.7087 378.152 18.278C377.835 18.8473 377.396 19.2907 376.836 19.608C376.285 19.916 375.66 20.07 374.96 20.07C374.363 20.07 373.821 19.9487 373.336 19.706C372.86 19.454 372.468 19.09 372.16 18.614V22.716H371.166V12.636H372.118V14.092C372.417 13.6067 372.809 13.2333 373.294 12.972C373.789 12.7107 374.344 12.58 374.96 12.58ZM374.89 19.188C375.403 19.188 375.87 19.0713 376.29 18.838C376.71 18.5953 377.037 18.2547 377.27 17.816C377.513 17.3773 377.634 16.878 377.634 16.318C377.634 15.758 377.513 15.2633 377.27 14.834C377.037 14.3953 376.71 14.0547 376.29 13.812C375.87 13.5693 375.403 13.448 374.89 13.448C374.367 13.448 373.896 13.5693 373.476 13.812C373.065 14.0547 372.739 14.3953 372.496 14.834C372.263 15.2633 372.146 15.758 372.146 16.318C372.146 16.878 372.263 17.3773 372.496 17.816C372.739 18.2547 373.065 18.5953 373.476 18.838C373.896 19.0713 374.367 19.188 374.89 19.188ZM385.67 13.518H382.884V20H381.89V13.518H379.104V12.636H385.67V13.518ZM393.393 12.636L389.711 20.882C389.412 21.5727 389.067 22.0627 388.675 22.352C388.283 22.6413 387.811 22.786 387.261 22.786C386.906 22.786 386.575 22.73 386.267 22.618C385.959 22.506 385.693 22.338 385.469 22.114L385.931 21.372C386.304 21.7453 386.752 21.932 387.275 21.932C387.611 21.932 387.895 21.8387 388.129 21.652C388.371 21.4653 388.595 21.148 388.801 20.7L389.123 19.986L385.833 12.636H386.869L389.641 18.894L392.413 12.636H393.393ZM83.596 30.2H84.632V40H83.596V30.2ZM90.5226 40.084C89.7946 40.084 89.0946 39.9673 88.4226 39.734C87.7599 39.5007 87.2466 39.1927 86.8826 38.81L87.2886 38.012C87.6433 38.3667 88.1146 38.656 88.7026 38.88C89.2906 39.0947 89.8973 39.202 90.5226 39.202C91.3999 39.202 92.0579 39.0433 92.4966 38.726C92.9353 38.3993 93.1546 37.9793 93.1546 37.466C93.1546 37.074 93.0333 36.7613 92.7906 36.528C92.5573 36.2947 92.2679 36.1173 91.9226 35.996C91.5773 35.8653 91.0966 35.7253 90.4806 35.576C89.7433 35.3893 89.1553 35.212 88.7166 35.044C88.2779 34.8667 87.8999 34.6007 87.5826 34.246C87.2746 33.8913 87.1206 33.4107 87.1206 32.804C87.1206 32.3093 87.2513 31.8613 87.5126 31.46C87.7739 31.0493 88.1753 30.7227 88.7166 30.48C89.2579 30.2373 89.9299 30.116 90.7326 30.116C91.2926 30.116 91.8386 30.1953 92.3706 30.354C92.9119 30.5033 93.3786 30.7133 93.7706 30.984L93.4206 31.81C93.0099 31.5393 92.5713 31.3387 92.1046 31.208C91.6379 31.068 91.1806 30.998 90.7326 30.998C89.8739 30.998 89.2253 31.166 88.7866 31.502C88.3573 31.8287 88.1426 32.2533 88.1426 32.776C88.1426 33.168 88.2593 33.4853 88.4926 33.728C88.7353 33.9613 89.0339 34.1433 89.3886 34.274C89.7526 34.3953 90.2379 34.5307 90.8446 34.68C91.5633 34.8573 92.1419 35.0347 92.5806 35.212C93.0286 35.38 93.4066 35.6413 93.7146 35.996C94.0226 36.3413 94.1766 36.8127 94.1766 37.41C94.1766 37.9047 94.0413 38.3573 93.7706 38.768C93.5093 39.1693 93.1033 39.4913 92.5526 39.734C92.0019 39.9673 91.3253 40.084 90.5226 40.084ZM100.718 40.084C99.7472 40.084 98.8652 39.8693 98.0719 39.44C97.2879 39.0013 96.6719 38.404 96.2239 37.648C95.7852 36.892 95.5659 36.0427 95.5659 35.1C95.5659 34.1573 95.7852 33.308 96.2239 32.552C96.6719 31.796 97.2879 31.2033 98.0719 30.774C98.8652 30.3353 99.7472 30.116 100.718 30.116C101.689 30.116 102.561 30.3307 103.336 30.76C104.12 31.1893 104.736 31.7867 105.184 32.552C105.632 33.308 105.856 34.1573 105.856 35.1C105.856 36.0427 105.632 36.8967 105.184 37.662C104.736 38.418 104.12 39.0107 103.336 39.44C102.561 39.8693 101.689 40.084 100.718 40.084ZM100.718 39.16C101.493 39.16 102.193 38.9873 102.818 38.642C103.443 38.2873 103.933 37.802 104.288 37.186C104.643 36.5607 104.82 35.8653 104.82 35.1C104.82 34.3347 104.643 33.644 104.288 33.028C103.933 32.4027 103.443 31.9173 102.818 31.572C102.193 31.2173 101.493 31.04 100.718 31.04C99.9432 31.04 99.2386 31.2173 98.6039 31.572C97.9786 31.9173 97.4839 32.4027 97.1199 33.028C96.7652 33.644 96.5879 34.3347 96.5879 35.1C96.5879 35.8653 96.7652 36.5607 97.1199 37.186C97.4839 37.802 97.9786 38.2873 98.6039 38.642C99.2386 38.9873 99.9432 39.16 100.718 39.16ZM117.666 39.104V40H110.792V39.286L114.866 35.296C115.379 34.792 115.725 34.358 115.902 33.994C116.089 33.6207 116.182 33.2473 116.182 32.874C116.182 32.2953 115.981 31.8473 115.58 31.53C115.188 31.2033 114.623 31.04 113.886 31.04C112.738 31.04 111.847 31.404 111.212 32.132L110.498 31.516C110.881 31.068 111.366 30.7227 111.954 30.48C112.551 30.2373 113.223 30.116 113.97 30.116C114.969 30.116 115.757 30.354 116.336 30.83C116.924 31.2967 117.218 31.9407 117.218 32.762C117.218 33.266 117.106 33.7513 116.882 34.218C116.658 34.6847 116.233 35.2213 115.608 35.828L112.276 39.104H117.666ZM122.782 40.084C122.026 40.084 121.35 39.8833 120.752 39.482C120.164 39.0807 119.702 38.5067 119.366 37.76C119.04 37.004 118.876 36.1173 118.876 35.1C118.876 34.0827 119.04 33.2007 119.366 32.454C119.702 31.698 120.164 31.1193 120.752 30.718C121.35 30.3167 122.026 30.116 122.782 30.116C123.538 30.116 124.21 30.3167 124.798 30.718C125.396 31.1193 125.862 31.698 126.198 32.454C126.534 33.2007 126.702 34.0827 126.702 35.1C126.702 36.1173 126.534 37.004 126.198 37.76C125.862 38.5067 125.396 39.0807 124.798 39.482C124.21 39.8833 123.538 40.084 122.782 40.084ZM122.782 39.16C123.352 39.16 123.851 39.0013 124.28 38.684C124.719 38.3667 125.06 37.9047 125.302 37.298C125.545 36.6913 125.666 35.9587 125.666 35.1C125.666 34.2413 125.545 33.5087 125.302 32.902C125.06 32.2953 124.719 31.8333 124.28 31.516C123.851 31.1987 123.352 31.04 122.782 31.04C122.213 31.04 121.709 31.1987 121.27 31.516C120.841 31.8333 120.505 32.2953 120.262 32.902C120.02 33.5087 119.898 34.2413 119.898 35.1C119.898 35.9587 120.02 36.6913 120.262 37.298C120.505 37.9047 120.841 38.3667 121.27 38.684C121.709 39.0013 122.213 39.16 122.782 39.16ZM134.811 39.104V40H127.937V39.286L132.011 35.296C132.524 34.792 132.869 34.358 133.047 33.994C133.233 33.6207 133.327 33.2473 133.327 32.874C133.327 32.2953 133.126 31.8473 132.725 31.53C132.333 31.2033 131.768 31.04 131.031 31.04C129.883 31.04 128.991 31.404 128.357 32.132L127.643 31.516C128.025 31.068 128.511 30.7227 129.099 30.48C129.696 30.2373 130.368 30.116 131.115 30.116C132.113 30.116 132.902 30.354 133.481 30.83C134.069 31.2967 134.363 31.9407 134.363 32.762C134.363 33.266 134.251 33.7513 134.027 34.218C133.803 34.6847 133.378 35.2213 132.753 35.828L129.421 39.104H134.811ZM138.652 34.218C140.07 34.218 141.102 34.4747 141.746 34.988C142.399 35.492 142.726 36.2013 142.726 37.116C142.726 37.6853 142.59 38.194 142.32 38.642C142.058 39.09 141.662 39.4447 141.13 39.706C140.598 39.958 139.944 40.084 139.17 40.084C138.47 40.084 137.802 39.972 137.168 39.748C136.542 39.5147 136.038 39.2067 135.656 38.824L136.146 38.026C136.472 38.362 136.902 38.6373 137.434 38.852C137.966 39.0573 138.54 39.16 139.156 39.16C139.968 39.16 140.593 38.978 141.032 38.614C141.48 38.25 141.704 37.7647 141.704 37.158C141.704 36.486 141.452 35.9773 140.948 35.632C140.453 35.2867 139.613 35.114 138.428 35.114H136.342L136.846 30.2H142.208V31.096H137.728L137.392 34.218H138.652ZM150.629 39.104V40H143.755V39.286L147.829 35.296C148.342 34.792 148.688 34.358 148.865 33.994C149.052 33.6207 149.145 33.2473 149.145 32.874C149.145 32.2953 148.944 31.8473 148.543 31.53C148.151 31.2033 147.586 31.04 146.849 31.04C145.701 31.04 144.81 31.404 144.175 32.132L143.461 31.516C143.844 31.068 144.329 30.7227 144.917 30.48C145.514 30.2373 146.186 30.116 146.933 30.116C147.932 30.116 148.72 30.354 149.299 30.83C149.887 31.2967 150.181 31.9407 150.181 32.762C150.181 33.266 150.069 33.7513 149.845 34.218C149.621 34.6847 149.196 35.2213 148.571 35.828L145.239 39.104H150.629ZM152.65 34.106C152.445 34.106 152.267 34.0313 152.118 33.882C151.978 33.7327 151.908 33.5507 151.908 33.336C151.908 33.1213 151.978 32.944 152.118 32.804C152.267 32.6547 152.445 32.58 152.65 32.58C152.855 32.58 153.033 32.6547 153.182 32.804C153.331 32.944 153.406 33.1213 153.406 33.336C153.406 33.5507 153.331 33.7327 153.182 33.882C153.033 34.0313 152.855 34.106 152.65 34.106ZM152.65 40.07C152.445 40.07 152.267 39.9953 152.118 39.846C151.978 39.6967 151.908 39.5147 151.908 39.3C151.908 39.0853 151.978 38.908 152.118 38.768C152.267 38.6187 152.445 38.544 152.65 38.544C152.855 38.544 153.033 38.6187 153.182 38.768C153.331 38.908 153.406 39.0853 153.406 39.3C153.406 39.5147 153.331 39.6967 153.182 39.846C153.033 39.9953 152.855 40.07 152.65 40.07ZM161.553 39.104V40H154.679V39.286L158.753 35.296C159.266 34.792 159.611 34.358 159.789 33.994C159.975 33.6207 160.069 33.2473 160.069 32.874C160.069 32.2953 159.868 31.8473 159.467 31.53C159.075 31.2033 158.51 31.04 157.773 31.04C156.625 31.04 155.733 31.404 155.099 32.132L154.385 31.516C154.767 31.068 155.253 30.7227 155.841 30.48C156.438 30.2373 157.11 30.116 157.857 30.116C158.855 30.116 159.644 30.354 160.223 30.83C160.811 31.2967 161.105 31.9407 161.105 32.762C161.105 33.266 160.993 33.7513 160.769 34.218C160.545 34.6847 160.12 35.2213 159.495 35.828L156.163 39.104H161.553ZM166.669 40.084C165.913 40.084 165.236 39.8833 164.639 39.482C164.051 39.0807 163.589 38.5067 163.253 37.76C162.926 37.004 162.763 36.1173 162.763 35.1C162.763 34.0827 162.926 33.2007 163.253 32.454C163.589 31.698 164.051 31.1193 164.639 30.718C165.236 30.3167 165.913 30.116 166.669 30.116C167.425 30.116 168.097 30.3167 168.685 30.718C169.282 31.1193 169.749 31.698 170.085 32.454C170.421 33.2007 170.589 34.0827 170.589 35.1C170.589 36.1173 170.421 37.004 170.085 37.76C169.749 38.5067 169.282 39.0807 168.685 39.482C168.097 39.8833 167.425 40.084 166.669 40.084ZM166.669 39.16C167.238 39.16 167.738 39.0013 168.167 38.684C168.606 38.3667 168.946 37.9047 169.189 37.298C169.432 36.6913 169.553 35.9587 169.553 35.1C169.553 34.2413 169.432 33.5087 169.189 32.902C168.946 32.2953 168.606 31.8333 168.167 31.516C167.738 31.1987 167.238 31.04 166.669 31.04C166.1 31.04 165.596 31.1987 165.157 31.516C164.728 31.8333 164.392 32.2953 164.149 32.902C163.906 33.5087 163.785 34.2413 163.785 35.1C163.785 35.9587 163.906 36.6913 164.149 37.298C164.392 37.9047 164.728 38.3667 165.157 38.684C165.596 39.0013 166.1 39.16 166.669 39.16ZM174.721 30.2V40H173.713V31.096H171.403V30.2H174.721ZM180.116 30.116C181.413 30.116 182.407 30.5453 183.098 31.404C183.789 32.2533 184.134 33.4573 184.134 35.016C184.134 36.108 183.947 37.032 183.574 37.788C183.201 38.544 182.678 39.118 182.006 39.51C181.334 39.8927 180.55 40.084 179.654 40.084C178.683 40.084 177.909 39.9067 177.33 39.552L177.736 38.74C178.203 39.048 178.837 39.202 179.64 39.202C180.723 39.202 181.572 38.8613 182.188 38.18C182.804 37.4893 183.112 36.4907 183.112 35.184C183.112 34.9413 183.098 34.6753 183.07 34.386C182.827 34.918 182.44 35.3333 181.908 35.632C181.376 35.9213 180.765 36.066 180.074 36.066C179.43 36.066 178.856 35.9447 178.352 35.702C177.857 35.4593 177.47 35.1187 177.19 34.68C176.91 34.232 176.77 33.714 176.77 33.126C176.77 32.5287 176.915 32.0013 177.204 31.544C177.493 31.0867 177.89 30.7367 178.394 30.494C178.907 30.242 179.481 30.116 180.116 30.116ZM180.228 35.212C180.723 35.212 181.157 35.1187 181.53 34.932C181.913 34.7453 182.211 34.4887 182.426 34.162C182.641 33.8353 182.748 33.4713 182.748 33.07C182.748 32.6967 182.645 32.3513 182.44 32.034C182.244 31.7167 181.95 31.46 181.558 31.264C181.166 31.068 180.699 30.97 180.158 30.97C179.449 30.97 178.87 31.166 178.422 31.558C177.983 31.9407 177.764 32.454 177.764 33.098C177.764 33.742 177.983 34.2553 178.422 34.638C178.87 35.0207 179.472 35.212 180.228 35.212Z" fill="#2B2B2B"/>
<g clip-path="url(#clip1_3814_20)">
<path d="M202.544 31.6V40H201.368V32.644H196.496V40H195.308V31.6H202.544ZM207.695 40.072C207.063 40.072 206.495 39.932 205.991 39.652C205.487 39.372 205.091 38.988 204.803 38.5C204.523 38.004 204.383 37.444 204.383 36.82C204.383 36.196 204.523 35.64 204.803 35.152C205.091 34.656 205.487 34.272 205.991 34C206.495 33.72 207.063 33.58 207.695 33.58C208.327 33.58 208.891 33.72 209.387 34C209.891 34.272 210.283 34.656 210.563 35.152C210.851 35.64 210.995 36.196 210.995 36.82C210.995 37.444 210.851 38.004 210.563 38.5C210.283 38.988 209.891 39.372 209.387 39.652C208.891 39.932 208.327 40.072 207.695 40.072ZM207.695 39.064C208.103 39.064 208.467 38.972 208.787 38.788C209.115 38.596 209.371 38.332 209.555 37.996C209.739 37.652 209.831 37.26 209.831 36.82C209.831 36.38 209.739 35.992 209.555 35.656C209.371 35.312 209.115 35.048 208.787 34.864C208.467 34.68 208.103 34.588 207.695 34.588C207.287 34.588 206.919 34.68 206.591 34.864C206.271 35.048 206.015 35.312 205.823 35.656C205.639 35.992 205.547 36.38 205.547 36.82C205.547 37.26 205.639 37.652 205.823 37.996C206.015 38.332 206.271 38.596 206.591 38.788C206.919 38.972 207.287 39.064 207.695 39.064ZM215.431 40.072C214.783 40.072 214.203 39.932 213.691 39.652C213.187 39.372 212.791 38.988 212.503 38.5C212.215 38.004 212.071 37.444 212.071 36.82C212.071 36.196 212.215 35.64 212.503 35.152C212.791 34.656 213.187 34.272 213.691 34C214.203 33.72 214.783 33.58 215.431 33.58C216.007 33.58 216.519 33.696 216.967 33.928C217.423 34.16 217.775 34.496 218.023 34.936L217.147 35.5C216.947 35.196 216.699 34.968 216.403 34.816C216.107 34.664 215.779 34.588 215.419 34.588C215.003 34.588 214.627 34.68 214.291 34.864C213.963 35.048 213.703 35.312 213.511 35.656C213.327 35.992 213.235 36.38 213.235 36.82C213.235 37.268 213.327 37.664 213.511 38.008C213.703 38.344 213.963 38.604 214.291 38.788C214.627 38.972 215.003 39.064 215.419 39.064C215.779 39.064 216.107 38.988 216.403 38.836C216.699 38.684 216.947 38.456 217.147 38.152L218.023 38.704C217.775 39.144 217.423 39.484 216.967 39.724C216.519 39.956 216.007 40.072 215.431 40.072ZM226.846 33.64V40H225.802V35.356L223.426 39.28H222.922L220.57 35.344V40H219.514V33.64H220.702L223.198 37.936L225.766 33.64H226.846ZM231.813 40.072C231.181 40.072 230.613 39.932 230.109 39.652C229.605 39.372 229.209 38.988 228.921 38.5C228.641 38.004 228.501 37.444 228.501 36.82C228.501 36.196 228.641 35.64 228.921 35.152C229.209 34.656 229.605 34.272 230.109 34C230.613 33.72 231.181 33.58 231.813 33.58C232.445 33.58 233.009 33.72 233.505 34C234.009 34.272 234.401 34.656 234.681 35.152C234.969 35.64 235.113 36.196 235.113 36.82C235.113 37.444 234.969 38.004 234.681 38.5C234.401 38.988 234.009 39.372 233.505 39.652C233.009 39.932 232.445 40.072 231.813 40.072ZM231.813 39.064C232.221 39.064 232.585 38.972 232.905 38.788C233.233 38.596 233.489 38.332 233.673 37.996C233.857 37.652 233.949 37.26 233.949 36.82C233.949 36.38 233.857 35.992 233.673 35.656C233.489 35.312 233.233 35.048 232.905 34.864C232.585 34.68 232.221 34.588 231.813 34.588C231.405 34.588 231.037 34.68 230.709 34.864C230.389 35.048 230.133 35.312 229.941 35.656C229.757 35.992 229.665 36.38 229.665 36.82C229.665 37.26 229.757 37.652 229.941 37.996C230.133 38.332 230.389 38.596 230.709 38.788C231.037 38.972 231.405 39.064 231.813 39.064ZM241.282 34.648H238.954V40H237.802V34.648H235.474V33.64H241.282V34.648ZM245.832 33.58C246.448 33.58 247 33.716 247.488 33.988C247.976 34.26 248.356 34.64 248.628 35.128C248.908 35.616 249.048 36.18 249.048 36.82C249.048 37.46 248.908 38.028 248.628 38.524C248.356 39.012 247.976 39.392 247.488 39.664C247 39.936 246.448 40.072 245.832 40.072C245.376 40.072 244.956 39.984 244.572 39.808C244.196 39.632 243.876 39.376 243.612 39.04V42.328H242.46V33.64H243.564V34.648C243.82 34.296 244.144 34.032 244.536 33.856C244.928 33.672 245.36 33.58 245.832 33.58ZM245.736 39.064C246.144 39.064 246.508 38.972 246.828 38.788C247.156 38.596 247.412 38.332 247.596 37.996C247.788 37.652 247.884 37.26 247.884 36.82C247.884 36.38 247.788 35.992 247.596 35.656C247.412 35.312 247.156 35.048 246.828 34.864C246.508 34.68 246.144 34.588 245.736 34.588C245.336 34.588 244.972 34.684 244.644 34.876C244.324 35.06 244.068 35.32 243.876 35.656C243.692 35.992 243.6 36.38 243.6 36.82C243.6 37.26 243.692 37.652 243.876 37.996C244.06 38.332 244.316 38.596 244.644 38.788C244.972 38.972 245.336 39.064 245.736 39.064ZM256.469 36.856C256.469 36.944 256.461 37.06 256.445 37.204H251.285C251.357 37.764 251.601 38.216 252.017 38.56C252.441 38.896 252.965 39.064 253.589 39.064C254.349 39.064 254.961 38.808 255.425 38.296L256.061 39.04C255.773 39.376 255.413 39.632 254.981 39.808C254.557 39.984 254.081 40.072 253.553 40.072C252.881 40.072 252.285 39.936 251.765 39.664C251.245 39.384 250.841 38.996 250.553 38.5C250.273 38.004 250.133 37.444 250.133 36.82C250.133 36.204 250.269 35.648 250.541 35.152C250.821 34.656 251.201 34.272 251.681 34C252.169 33.72 252.717 33.58 253.325 33.58C253.933 33.58 254.473 33.72 254.945 34C255.425 34.272 255.797 34.656 256.061 35.152C256.333 35.648 256.469 36.216 256.469 36.856ZM253.325 34.552C252.773 34.552 252.309 34.72 251.933 35.056C251.565 35.392 251.349 35.832 251.285 36.376H255.365C255.301 35.84 255.081 35.404 254.705 35.068C254.337 34.724 253.877 34.552 253.325 34.552ZM262.727 34.648H260.399V40H259.247V34.648H256.919V33.64H262.727V34.648ZM266.845 35.8C267.653 35.808 268.269 35.992 268.693 36.352C269.117 36.712 269.329 37.22 269.329 37.876C269.329 38.564 269.097 39.096 268.633 39.472C268.177 39.84 267.521 40.02 266.665 40.012L263.905 40V33.64H265.057V35.788L266.845 35.8ZM266.569 39.136C267.089 39.144 267.481 39.04 267.745 38.824C268.017 38.608 268.153 38.288 268.153 37.864C268.153 37.448 268.021 37.144 267.757 36.952C267.501 36.76 267.105 36.66 266.569 36.652L265.057 36.628V39.124L266.569 39.136ZM276.802 40.072C276.154 40.072 275.574 39.932 275.062 39.652C274.558 39.372 274.162 38.988 273.874 38.5C273.586 38.004 273.442 37.444 273.442 36.82C273.442 36.196 273.586 35.64 273.874 35.152C274.162 34.656 274.558 34.272 275.062 34C275.574 33.72 276.154 33.58 276.802 33.58C277.378 33.58 277.89 33.696 278.338 33.928C278.794 34.16 279.146 34.496 279.394 34.936L278.518 35.5C278.318 35.196 278.07 34.968 277.774 34.816C277.478 34.664 277.15 34.588 276.79 34.588C276.374 34.588 275.998 34.68 275.662 34.864C275.334 35.048 275.074 35.312 274.882 35.656C274.698 35.992 274.606 36.38 274.606 36.82C274.606 37.268 274.698 37.664 274.882 38.008C275.074 38.344 275.334 38.604 275.662 38.788C275.998 38.972 276.374 39.064 276.79 39.064C277.15 39.064 277.478 38.988 277.774 38.836C278.07 38.684 278.318 38.456 278.518 38.152L279.394 38.704C279.146 39.144 278.794 39.484 278.338 39.724C277.89 39.956 277.378 40.072 276.802 40.072ZM286.54 36.856C286.54 36.944 286.532 37.06 286.516 37.204H281.356C281.428 37.764 281.672 38.216 282.088 38.56C282.512 38.896 283.036 39.064 283.66 39.064C284.42 39.064 285.032 38.808 285.496 38.296L286.132 39.04C285.844 39.376 285.484 39.632 285.052 39.808C284.628 39.984 284.152 40.072 283.624 40.072C282.952 40.072 282.356 39.936 281.836 39.664C281.316 39.384 280.912 38.996 280.624 38.5C280.344 38.004 280.204 37.444 280.204 36.82C280.204 36.204 280.34 35.648 280.612 35.152C280.892 34.656 281.272 34.272 281.752 34C282.24 33.72 282.788 33.58 283.396 33.58C284.004 33.58 284.544 33.72 285.016 34C285.496 34.272 285.868 34.656 286.132 35.152C286.404 35.648 286.54 36.216 286.54 36.856ZM283.396 34.552C282.844 34.552 282.38 34.72 282.004 35.056C281.636 35.392 281.42 35.832 281.356 36.376H285.436C285.372 35.84 285.152 35.404 284.776 35.068C284.408 34.724 283.948 34.552 283.396 34.552ZM291.699 33.58C292.315 33.58 292.867 33.716 293.355 33.988C293.843 34.26 294.223 34.64 294.495 35.128C294.775 35.616 294.915 36.18 294.915 36.82C294.915 37.46 294.775 38.028 294.495 38.524C294.223 39.012 293.843 39.392 293.355 39.664C292.867 39.936 292.315 40.072 291.699 40.072C291.243 40.072 290.823 39.984 290.439 39.808C290.063 39.632 289.743 39.376 289.479 39.04V42.328H288.327V33.64H289.431V34.648C289.687 34.296 290.011 34.032 290.403 33.856C290.795 33.672 291.227 33.58 291.699 33.58ZM291.603 39.064C292.011 39.064 292.375 38.972 292.695 38.788C293.023 38.596 293.279 38.332 293.463 37.996C293.655 37.652 293.751 37.26 293.751 36.82C293.751 36.38 293.655 35.992 293.463 35.656C293.279 35.312 293.023 35.048 292.695 34.864C292.375 34.68 292.011 34.588 291.603 34.588C291.203 34.588 290.839 34.684 290.511 34.876C290.191 35.06 289.935 35.32 289.743 35.656C289.559 35.992 289.467 36.38 289.467 36.82C289.467 37.26 289.559 37.652 289.743 37.996C289.927 38.332 290.183 38.596 290.511 38.788C290.839 38.972 291.203 39.064 291.603 39.064ZM301.094 34.648H298.766V40H297.614V34.648H295.286V33.64H301.094V34.648ZM302.272 33.64H303.424V38.272L307.324 33.64H308.368V40H307.216V35.368L303.328 40H302.272V33.64ZM318.632 36.808C318.632 37.792 318.304 38.568 317.648 39.136C316.992 39.704 316.068 40.02 314.876 40.084V42.328H313.748V40.084C312.556 40.02 311.632 39.708 310.976 39.148C310.328 38.58 310.004 37.8 310.004 36.808C310.004 35.824 310.328 35.056 310.976 34.504C311.624 33.952 312.548 33.644 313.748 33.58V31.096H314.876V33.58C316.068 33.644 316.992 33.956 317.648 34.516C318.304 35.068 318.632 35.832 318.632 36.808ZM311.144 36.808C311.144 37.488 311.36 38.02 311.792 38.404C312.232 38.788 312.884 39.008 313.748 39.064V34.6C312.876 34.656 312.224 34.872 311.792 35.248C311.36 35.624 311.144 36.144 311.144 36.808ZM314.876 39.076C316.62 38.94 317.492 38.184 317.492 36.808C317.492 36.136 317.272 35.616 316.832 35.248C316.392 34.872 315.74 34.656 314.876 34.6V39.076ZM320.261 33.64H321.413V38.272L325.313 33.64H326.357V40H325.205V35.368L321.317 40H320.261V33.64ZM331.065 37.312H329.745V40H328.593V33.64H329.745V36.328H331.089L333.153 33.64H334.389L331.977 36.7L334.557 40H333.201L331.065 37.312ZM337.915 33.58C338.795 33.58 339.467 33.796 339.931 34.228C340.403 34.66 340.639 35.304 340.639 36.16V40H339.547V39.16C339.355 39.456 339.079 39.684 338.719 39.844C338.367 39.996 337.947 40.072 337.459 40.072C336.747 40.072 336.175 39.9 335.743 39.556C335.319 39.212 335.107 38.76 335.107 38.2C335.107 37.64 335.311 37.192 335.719 36.856C336.127 36.512 336.775 36.34 337.663 36.34H339.487V36.112C339.487 35.616 339.343 35.236 339.055 34.972C338.767 34.708 338.343 34.576 337.783 34.576C337.407 34.576 337.039 34.64 336.679 34.768C336.319 34.888 336.015 35.052 335.767 35.26L335.287 34.396C335.615 34.132 336.007 33.932 336.463 33.796C336.919 33.652 337.403 33.58 337.915 33.58ZM337.651 39.184C338.091 39.184 338.471 39.088 338.791 38.896C339.111 38.696 339.343 38.416 339.487 38.056V37.168H337.711C336.735 37.168 336.247 37.496 336.247 38.152C336.247 38.472 336.371 38.724 336.619 38.908C336.867 39.092 337.211 39.184 337.651 39.184ZM347.454 34.648H345.126V40H343.974V34.648H341.646V33.64H347.454V34.648Z" fill="#EF4744"/>
<line x1="195" y1="44.75" x2="348" y2="44.75" stroke="#EF4744" stroke-width="0.5" stroke-dasharray="3 3"/>
</g>
<defs>
<clipPath id="clip0_3814_20">
<rect width="66" height="54" fill="white"/>
</clipPath>
<clipPath id="clip1_3814_20">
<rect width="154" height="17" fill="white" transform="translate(194 28)"/>
</clipPath>
</defs>
</svg>
