<svg width="239" height="57" viewBox="0 0 239 57" fill="none" xmlns="http://www.w3.org/2000/svg">
<g clip-path="url(#clip0_11190_140)">
<path fill-rule="evenodd" clip-rule="evenodd" d="M90.891 27.056C90.1779 25.2486 89.4726 23.5269 88.7752 21.8908C88.0778 20.2548 87.3607 18.6577 86.6241 17.0996H82.7921C82.0476 18.6577 81.3267 20.2704 80.6292 21.9376C79.9318 23.6048 79.2265 25.3265 78.5134 27.1027C77.8003 28.9102 77.0715 30.8227 76.327 32.8405C75.5825 34.8583 74.7989 37.063 73.9761 39.4547H78.149L79.0541 36.8605C79.3597 35.9879 79.6653 35.0998 79.971 34.1961H89.3042C89.6019 35.0998 89.9115 35.9801 90.2328 36.8371C90.5541 37.694 90.8636 38.5666 91.1614 39.4547H95.4989C94.6682 37.0708 93.8846 34.8661 93.1479 32.8405C92.4113 30.815 91.659 28.8868 90.891 27.056ZM80.9701 30.8656C81.6519 28.9491 82.3062 27.1728 82.9331 25.5368C83.5601 23.9008 84.1164 22.5141 84.6023 21.3766C85.0725 22.4751 85.6249 23.8502 86.2597 25.5018C86.8945 27.1534 87.5527 28.9374 88.2345 30.8539L80.9701 30.8656ZM108.523 29.1244H102.246V22.5452H98.3905V39.4197H102.246V32.4081H108.523V39.4197H112.379V22.5452H108.523V29.1244ZM129.235 34.5233C128.545 33.6975 127.844 32.9184 127.131 32.1861C126.478 31.5016 125.792 30.8503 125.074 30.2346L126.778 28.4817L128.694 26.4483L130.575 24.4033C131.178 23.7333 131.715 23.1217 132.185 22.5686H127.66C127.323 22.9737 126.9 23.4645 126.39 24.041L124.78 25.829L123.075 27.6169C122.503 28.2324 121.97 28.7855 121.477 29.2763V22.4985H117.621V39.4197H121.453V31.8355C122.082 32.3147 122.679 32.8339 123.24 33.3897C123.859 33.9896 124.466 34.6284 125.062 35.3062C125.657 35.984 126.226 36.6774 126.766 37.3863C127.307 38.0953 127.781 38.773 128.189 39.4197H132.655C132.199 38.6155 131.7 37.8354 131.163 37.0825C130.575 36.2255 129.932 35.3763 129.235 34.535V34.5233ZM141.883 22.1245C140.899 22.1251 139.925 22.3156 139.015 22.6855C138.074 23.0649 137.224 23.6385 136.523 24.3682C135.759 25.1727 135.167 26.1228 134.783 27.1612C134.323 28.4106 134.1 29.734 134.125 31.0643C134.11 32.2518 134.281 33.4343 134.63 34.57C134.948 35.5928 135.481 36.5368 136.194 37.3396C136.932 38.1488 137.85 38.7768 138.874 39.1743C140.095 39.6417 141.397 39.868 142.706 39.8404C143.271 39.8421 143.836 39.8109 144.398 39.7469C144.955 39.6845 145.472 39.6027 145.95 39.5015C146.379 39.4151 146.802 39.3059 147.219 39.1743C147.522 39.0843 147.816 38.971 148.101 38.8354L147.596 35.6451C147.003 35.8837 146.389 36.0676 145.762 36.1944C144.92 36.3731 144.06 36.4593 143.199 36.4514C141.877 36.5275 140.574 36.1108 139.544 35.2829C139.109 34.8784 138.76 34.3923 138.516 33.8527C138.272 33.3131 138.138 32.7308 138.121 32.1394H149.124C149.124 31.9212 149.124 31.6797 149.124 31.4148C149.124 31.1499 149.124 30.9084 149.124 30.6903C149.298 28.3779 148.612 26.0826 147.196 24.2397C146.518 23.5247 145.691 22.9652 144.774 22.5999C143.856 22.2346 142.87 22.0724 141.883 22.1245ZM138.157 29.3231C138.221 28.8288 138.339 28.343 138.509 27.874C138.671 27.4141 138.913 26.9867 139.226 26.6119C139.551 26.2367 139.951 25.9341 140.402 25.7238C140.888 25.4887 141.424 25.3725 141.965 25.3849C142.476 25.371 142.983 25.475 143.446 25.6887C143.857 25.8883 144.218 26.1756 144.504 26.5301C144.803 26.9048 145.027 27.3333 145.162 27.7922C145.313 28.2886 145.388 28.8046 145.386 29.3231H138.157ZM151.545 25.8173H156.905V39.4197H160.761V25.8056H166.121V22.5452H151.545V25.8173ZM182.19 24.5552C181.486 23.7808 180.619 23.1703 179.651 22.7673C178.627 22.3406 177.527 22.1258 176.418 22.1362C175.312 22.1241 174.216 22.339 173.197 22.7673C172.232 23.1756 171.366 23.7853 170.658 24.5552C169.924 25.3669 169.36 26.3165 169.001 27.3481C168.594 28.5165 168.395 29.7463 168.413 30.9824C168.397 32.2223 168.596 33.4557 169.001 34.6284C169.358 35.6619 169.917 36.6151 170.646 37.4331C171.351 38.2011 172.213 38.8106 173.174 39.221C174.201 39.6608 175.311 39.8798 176.43 39.8637C177.552 39.8779 178.665 39.659 179.698 39.221C180.665 38.8062 181.531 38.1883 182.237 37.4097C182.962 36.5928 183.513 35.6389 183.859 34.6051C184.255 33.4304 184.449 32.1979 184.435 30.9591C184.452 29.7229 184.253 28.4931 183.847 27.3248C183.479 26.2982 182.912 25.3533 182.178 24.5435L182.19 24.5552ZM179.404 35.0141C179.057 35.4737 178.607 35.8467 178.089 36.1036C177.572 36.3606 177.002 36.4943 176.424 36.4943C175.846 36.4943 175.276 36.3606 174.758 36.1036C174.241 35.8467 173.791 35.4737 173.444 35.0141C172.672 33.8147 172.298 32.4045 172.374 30.9824C172.299 29.5752 172.673 28.1802 173.444 26.9976C173.794 26.5421 174.245 26.173 174.762 25.9189C175.279 25.6649 175.847 25.5327 176.424 25.5327C177 25.5327 177.569 25.6649 178.086 25.9189C178.603 26.173 179.054 26.5421 179.404 26.9976C180.175 28.1802 180.549 29.5752 180.473 30.9824C180.543 32.4018 180.165 33.8073 179.392 35.0024L179.404 35.0141ZM191.57 24.6604C191.57 25.4394 191.57 26.2185 191.57 26.9976C191.57 27.7766 191.523 28.5791 191.429 29.4049C191.35 30.1839 191.245 30.9318 191.111 31.6485C190.991 32.3041 190.794 32.9434 190.524 33.5533C190.229 34.2772 189.756 34.916 189.148 35.4114C188.408 35.9593 187.545 36.3202 186.633 36.4631L187.174 39.7235C188.325 39.6353 189.448 39.3216 190.477 38.8003C191.324 38.334 192.074 37.7113 192.686 36.9656C193.287 36.2699 193.768 35.4802 194.109 34.6284C194.454 33.7091 194.706 32.7579 194.861 31.7888C195.022 30.7906 195.124 29.7839 195.167 28.7738C195.206 27.7532 195.237 26.7677 195.261 25.8173H199.504V39.4197H203.36V22.5452H191.605L191.57 24.6604ZM221.45 24.5669C220.746 23.7925 219.879 23.182 218.911 22.779C217.888 22.3523 216.788 22.1375 215.679 22.1479C214.573 22.1358 213.476 22.3506 212.458 22.779C211.492 23.1872 210.627 23.797 209.919 24.5669C209.184 25.3786 208.621 26.3282 208.261 27.3598C207.855 28.5281 207.656 29.758 207.674 30.9941C207.657 32.234 207.856 33.4674 208.261 34.6401C208.619 35.6736 209.178 36.6267 209.907 37.4447C210.606 38.2198 211.464 38.8374 212.423 39.2561C213.45 39.6958 214.56 39.9148 215.679 39.8988C216.801 39.913 217.914 39.6941 218.946 39.2561C219.914 38.8413 220.78 38.2234 221.485 37.4447C222.21 36.6279 222.762 35.674 223.108 34.6401C223.503 33.4654 223.698 32.233 223.684 30.9941C223.701 29.758 223.502 28.5282 223.096 27.3598C222.732 26.3208 222.164 25.3637 221.427 24.5435L221.45 24.5669ZM218.664 35.0258C218.317 35.4854 217.867 35.8584 217.35 36.1153C216.833 36.3722 216.263 36.506 215.684 36.506C215.106 36.506 214.536 36.3722 214.019 36.1153C213.502 35.8584 213.052 35.4854 212.705 35.0258C211.932 33.8264 211.558 32.4162 211.635 30.9941C211.559 29.5869 211.934 28.1919 212.705 27.0092C213.055 26.5538 213.506 26.1847 214.022 25.9306C214.539 25.6765 215.108 25.5444 215.684 25.5444C216.261 25.5444 216.83 25.6765 217.347 25.9306C217.863 26.1847 218.314 26.5538 218.664 27.0092C219.435 28.1919 219.81 29.5869 219.734 30.9941C219.798 32.4108 219.416 33.812 218.641 35.0024L218.664 35.0258ZM227.986 22.5686V39.4197H231.841V25.7705H239V22.5452L227.986 22.5686Z" fill="white"/>
<path fill-rule="evenodd" clip-rule="evenodd" d="M22.4347 51.1196L23.3789 47.291C20.0839 46.5555 17.0575 44.9235 14.6355 42.576C12.2134 40.2286 10.4904 37.2574 9.65759 33.9922L5.90454 34.9702C6.90565 38.9184 8.97826 42.5147 11.8945 45.3638C14.8108 48.2129 18.4578 50.2045 22.4347 51.1196Z" fill="white"/>
<path fill-rule="evenodd" clip-rule="evenodd" d="M44.2358 35.6025C42.7457 39.8077 39.7714 43.327 35.8691 45.5021L38.176 50.1656C43.2321 47.3938 47.0967 42.8712 49.0407 37.4513L44.2358 35.6025Z" fill="white"/>
<path fill-rule="evenodd" clip-rule="evenodd" d="M40.5666 53.8392L36.1083 45.3232C32.1587 47.5064 27.5387 48.1523 23.14 47.1362L20.7495 56.1293C27.4046 57.9357 34.5013 57.1156 40.5666 53.8392Z" fill="white"/>
<path fill-rule="evenodd" clip-rule="evenodd" d="M45.3474 29.3288C45.3495 31.7333 44.8826 34.1153 43.9729 36.3419L52.6264 40.1229C54.5562 35.1384 54.9352 29.6891 53.7141 24.4863L45.0964 26.0846C45.2745 27.1566 45.3585 28.2421 45.3474 29.3288Z" fill="white"/>
<path fill-rule="evenodd" clip-rule="evenodd" d="M9.04797 29.3288C9.05017 26.6556 9.6333 24.0146 10.7572 21.5881L2.45025 17.8906C-0.356178 24.1278 -0.781261 31.1735 1.25501 37.7017L9.90854 34.9465C9.33493 33.129 9.04468 31.2343 9.04797 29.3288Z" fill="white"/>
<path fill-rule="evenodd" clip-rule="evenodd" d="M4.76904 19.0116L10.7452 21.6594C11.8188 19.2791 13.3926 17.1568 15.3599 15.4365C17.3272 13.7161 19.6422 12.4379 22.1478 11.6883L20.1398 5.43848C16.7544 6.47297 13.6305 8.21983 10.979 10.5613C8.32748 12.9027 6.20989 15.7842 4.76904 19.0116Z" fill="white"/>
<path fill-rule="evenodd" clip-rule="evenodd" d="M18.0125 3.57801L21.2276 12.0344C23.4386 11.2439 25.7851 10.9001 28.1305 11.023C30.4758 11.1458 32.7733 11.7329 34.8892 12.75L38.6542 3.91197C32.0784 1.12887 24.6752 1.00909 18.0125 3.57801Z" fill="white"/>
<path fill-rule="evenodd" clip-rule="evenodd" d="M39.5027 0L34.5066 12.5235C37.2631 13.7653 39.6698 15.6669 41.513 18.0597C43.3562 20.4524 44.5789 23.2623 45.0725 26.2398L58.9612 23.7828C57.9684 18.5115 55.6671 13.5727 52.2678 9.41797C48.8686 5.26325 44.4797 2.02523 39.5027 0V0Z" fill="white"/>
<path fill-rule="evenodd" clip-rule="evenodd" d="M35.1162 35.9966C34.4828 34.2314 34.1242 33.5396 33.5624 32.0129C33.0007 30.4862 32.4389 29.0073 31.901 27.6237C31.3632 26.2402 30.8134 24.9163 30.2875 23.652C29.7616 22.3877 29.1878 21.1473 28.6141 19.9068C28.5245 19.689 28.3722 19.5026 28.1765 19.371C27.9808 19.2394 27.7505 19.1685 27.5145 19.1673C27.2382 19.1606 26.9681 19.2496 26.7502 19.4192C26.5323 19.5889 26.38 19.8286 26.3193 20.0977C25.7695 21.2745 25.2396 22.4672 24.7296 23.6758C24.2196 24.8844 23.6818 26.2084 23.116 27.6476C22.5901 29.0152 22.0323 30.4703 21.4427 32.0129C20.8809 33.5515 20.618 34.3984 19.9845 36.1517C19.901 36.3142 19.856 36.4938 19.853 36.6765C19.853 36.9928 19.979 37.2962 20.2031 37.5198C20.4273 37.7435 20.7313 37.8692 21.0483 37.8692C21.272 37.8619 21.4893 37.7922 21.6752 37.6677C21.8612 37.5433 22.0084 37.3693 22.1001 37.1655L23.618 32.6451H31.2556L32.0086 34.8397C32.2477 35.5553 32.5106 36.3186 32.7855 37.0581C32.88 37.2966 33.045 37.5007 33.2584 37.6434C33.4719 37.7861 33.7238 37.8607 33.9808 37.8572C34.321 37.851 34.6451 37.7108 34.8823 37.4674C35.1196 37.2239 35.2509 36.8968 35.2477 36.5572C35.246 36.3629 35.2011 36.1714 35.1162 35.9966ZM24.3591 30.689C24.8611 29.2577 25.3671 27.8702 25.877 26.5264C26.387 25.1826 26.901 23.8945 27.4189 22.662C27.9687 23.9024 28.4986 25.1946 29.0086 26.5383C29.5185 27.8821 30.0325 29.2697 30.5504 30.7009L24.3591 30.689Z" fill="white"/>
</g>
<defs>
<clipPath id="clip0_11190_140">
<rect width="239" height="57" fill="white"/>
</clipPath>
</defs>
</svg>
