<svg width="43" height="42" viewBox="0 0 43 42" fill="none" xmlns="http://www.w3.org/2000/svg">
<g clip-path="url(#clip0_11190_330)">
<path fill-rule="evenodd" clip-rule="evenodd" d="M16.7699 36.8552L17.4336 34.1684C15.1175 33.6523 12.9901 32.507 11.2876 30.8597C9.58507 29.2123 8.37392 27.1273 7.78852 24.8359L5.15039 25.5223C5.8541 28.2929 7.31099 30.8167 9.36093 32.816C11.4109 34.8154 13.9745 36.213 16.7699 36.8552Z" fill="#B0D7E6"/>
<path fill-rule="evenodd" clip-rule="evenodd" d="M32.0946 25.9668C31.0471 28.9178 28.9564 31.3875 26.2134 32.9139L27.8349 36.1865C31.389 34.2414 34.1056 31.0676 35.472 27.2641L32.0946 25.9668Z" fill="#60A9C5"/>
<path fill-rule="evenodd" clip-rule="evenodd" d="M29.5154 38.7652L26.3816 32.7891C23.6053 34.3211 20.3578 34.7744 17.2658 34.0613L15.5854 40.3722C20.2635 41.6399 25.252 41.0644 29.5154 38.7652V38.7652Z" fill="#8FC4D9"/>
<path fill-rule="evenodd" clip-rule="evenodd" d="M32.8759 21.5642C32.8773 23.2516 32.5491 24.9232 31.9097 26.4857L37.9925 29.139C39.349 25.6411 39.6154 21.8171 38.757 18.166L32.6994 19.2876C32.8246 20.0399 32.8836 20.8017 32.8759 21.5642Z" fill="#318EB4"/>
<path fill-rule="evenodd" clip-rule="evenodd" d="M7.36003 21.5639C7.36157 19.688 7.77147 17.8347 8.56147 16.1318L2.7223 13.5371C0.749576 17.9141 0.450773 22.8585 1.88213 27.4396L7.96495 25.5061C7.56174 24.2307 7.35771 22.9011 7.36003 21.5639V21.5639Z" fill="#8FC4D9"/>
<path fill-rule="evenodd" clip-rule="evenodd" d="M4.35229 14.3238L8.55314 16.182C9.30777 14.5115 10.414 13.0222 11.7969 11.815C13.1798 10.6077 14.807 9.71068 16.5683 9.18468L15.1569 4.79883C12.7771 5.52479 10.5813 6.75065 8.71746 8.39376C6.85362 10.0369 5.36511 12.059 4.35229 14.3238V14.3238Z" fill="#60A9C5"/>
<path fill-rule="evenodd" clip-rule="evenodd" d="M13.6614 3.493L15.9214 9.42729C17.4756 8.87259 19.125 8.63133 20.7736 8.71754C22.4223 8.80376 24.0372 9.21573 25.5245 9.92949L28.1711 3.72735C23.5487 1.7743 18.3448 1.69025 13.6614 3.493V3.493Z" fill="#318EB4"/>
<path fill-rule="evenodd" clip-rule="evenodd" d="M28.7675 0.982422L25.2556 9.77087C27.1933 10.6423 28.885 11.9767 30.1806 13.6559C31.4762 15.335 32.3357 17.3068 32.6827 19.3963L42.4454 17.6721C41.7476 13.9729 40.13 10.5071 37.7405 7.59152C35.3511 4.67593 32.266 2.40364 28.7675 0.982422V0.982422Z" fill="#0C74A4"/>
<path fill-rule="evenodd" clip-rule="evenodd" d="M25.684 26.2438C25.2387 25.0051 24.9867 24.5196 24.5918 23.4483C24.1969 22.3769 23.802 21.3391 23.424 20.3681C23.0459 19.3972 22.6594 18.4682 22.2897 17.5809C21.9201 16.6937 21.5168 15.8233 21.1135 14.9528C21.0505 14.7999 20.9434 14.6691 20.8059 14.5767C20.6683 14.4844 20.5064 14.4347 20.3406 14.4338C20.1463 14.4291 19.9565 14.4916 19.8033 14.6106C19.6501 14.7296 19.5431 14.8979 19.5004 15.0867C19.1139 15.9125 18.7414 16.7495 18.383 17.5977C18.0245 18.4458 17.6464 19.3749 17.2487 20.3849C16.8791 21.3446 16.487 22.3658 16.0725 23.4483C15.6776 24.528 15.4928 25.1223 15.0475 26.3527C14.9888 26.4667 14.9572 26.5927 14.9551 26.7209C14.9551 26.9429 15.0436 27.1558 15.2012 27.3128C15.3587 27.4697 15.5724 27.5579 15.7952 27.5579C15.9525 27.5529 16.1052 27.5039 16.236 27.4166C16.3667 27.3293 16.4702 27.2071 16.5346 27.0641V27.0641L17.6016 23.8919H22.9703L23.4996 25.432C23.6676 25.9342 23.8525 26.4698 24.0457 26.9888C24.1121 27.1561 24.2281 27.2993 24.3781 27.3995C24.5282 27.4997 24.7053 27.552 24.8859 27.5496C25.1251 27.5452 25.3528 27.4468 25.5196 27.276C25.6864 27.1051 25.7787 26.8756 25.7764 26.6372C25.7753 26.5009 25.7437 26.3665 25.684 26.2438V26.2438ZM18.1225 22.5192C18.4754 21.5148 18.8311 20.5411 19.1895 19.5981C19.548 18.6551 19.9093 17.7511 20.2733 16.8862C20.6598 17.7567 21.0323 18.6635 21.3908 19.6065C21.7492 20.5495 22.1105 21.5232 22.4746 22.5276L18.1225 22.5192Z" fill="#EF4744"/>
</g>
<defs>
<clipPath id="clip0_11190_330">
<rect width="43" height="42" fill="white"/>
</clipPath>
</defs>
</svg>
