<svg width="32" height="32" viewBox="0 0 32 32" fill="none" xmlns="http://www.w3.org/2000/svg">
<path fill-rule="evenodd" clip-rule="evenodd" d="M4 1H28C29.6569 1 31 2.34315 31 4V28C31 29.6569 29.6569 31 28 31H4C2.34315 31 1 29.6569 1 28V21H0V28C0 30.2091 1.79086 32 4 32H28C30.2091 32 32 30.2091 32 28V4C32 1.79086 30.2091 0 28 0H4C1.79086 0 0 1.79086 0 4V11H1V4C1 2.34315 2.34315 1 4 1Z" fill="#2D9CDB"/>
<path d="M25 17H1C0.447715 17 0 16.5523 0 16C0 15.4477 0.447716 15 1 15H25C25.5523 15 26 15.4477 26 16C26 16.5523 25.5523 17 25 17Z" fill="#333333"/>
<path d="M25 11H7C6.44772 11 6 10.5523 6 10C6 9.44772 6.44772 9 7 9H25C25.5523 9 26 9.44772 26 10C26 10.5523 25.5523 11 25 11Z" fill="#333333"/>
<path d="M25 23H7C6.44772 23 6 22.5523 6 22C6 21.4477 6.44772 21 7 21H25C25.5523 21 26 21.4477 26 22C26 22.5523 25.5523 23 25 23Z" fill="#333333"/>
</svg>
