<svg width="24" height="24" viewBox="0 0 24 24" fill="none" xmlns="http://www.w3.org/2000/svg">
<g clip-path="url(#clip0_710_166)">
<path d="M23.962 12.1854C24.0393 11.9984 23.9963 11.7832 23.853 11.6404L14.853 2.64036C14.6544 2.4485 14.3378 2.45403 14.146 2.65264C13.9589 2.84642 13.9589 3.1536 14.146 3.34733L22.293 11.4943H0.500016C0.223875 11.4944 0 11.7183 0 11.9944C0 12.2705 0.223875 12.4944 0.500016 12.4944H22.293L14.147 20.6404C13.9484 20.8323 13.9429 21.1488 14.1347 21.3474C14.3266 21.546 14.6431 21.5515 14.8417 21.3597C14.8459 21.3557 14.85 21.3516 14.854 21.3474L23.854 12.3474C23.9002 12.301 23.937 12.2459 23.962 12.1854Z" fill="#2196F3"/>
<path d="M14.4999 21.4943C14.2238 21.4948 13.9995 21.2713 13.999 20.9952C13.9988 20.8621 14.0517 20.7343 14.1459 20.6403L22.793 11.9943L14.1459 3.34834C13.9541 3.14973 13.9596 2.83318 14.1582 2.64132C14.352 2.4542 14.6592 2.4542 14.8529 2.64132L23.8529 11.6413C24.0481 11.8366 24.0481 12.1531 23.8529 12.3483L14.8529 21.3483C14.7592 21.4418 14.6323 21.4943 14.4999 21.4943Z" fill="#BDBDBD"/>
<path d="M23.5 12.4941H0.500016C0.223875 12.4941 0 12.2703 0 11.9942C0 11.718 0.223875 11.4941 0.500016 11.4941H23.5C23.7762 11.4941 24 11.718 24 11.9942C24 12.2703 23.7761 12.4941 23.5 12.4941Z" fill="#BDBDBD"/>
<circle cx="3" cy="12" r="3" fill="#EB5757"/>
</g>
<defs>
<clipPath id="clip0_710_166">
<rect width="24" height="24" fill="white"/>
</clipPath>
</defs>
</svg>
